<?xml version="1.0" encoding="UTF-8" standalone="no"?>
<svg
   xmlns:dc="http://purl.org/dc/elements/1.1/"
   xmlns:cc="http://creativecommons.org/ns#"
   xmlns:rdf="http://www.w3.org/1999/02/22-rdf-syntax-ns#"
   xmlns:svg="http://www.w3.org/2000/svg"
   xmlns="http://www.w3.org/2000/svg"
   xmlns:sodipodi="http://sodipodi.sourceforge.net/DTD/sodipodi-0.dtd"
   xmlns:inkscape="http://www.inkscape.org/namespaces/inkscape"
   sodipodi:docname="oscillator-capacitor-example-equation.svg"
   inkscape:version="1.0 (4035a4fb49, 2020-05-01)"
   width="104.14063mm"
   height="27.129519mm"
   viewBox="0 0 104.14063 27.129519"
   version="1.1"
   id="svg8">
  <defs
     id="defs2" />
  <sodipodi:namedview
     fit-margin-bottom="0"
     fit-margin-right="0"
     fit-margin-left="0"
     fit-margin-top="0"
     inkscape:window-maximized="0"
     inkscape:window-y="480"
     inkscape:window-x="104"
     inkscape:window-height="1400"
     inkscape:window-width="1428"
     showgrid="false"
     inkscape:document-rotation="0"
     inkscape:current-layer="svg8"
     inkscape:document-units="mm"
     inkscape:cy="-252.0265"
     inkscape:cx="47.895678"
     inkscape:zoom="0.7"
     inkscape:pageshadow="2"
     inkscape:pageopacity="0.0"
     borderopacity="1.0"
     bordercolor="#666666"
     pagecolor="#ffffff"
     id="base" />
  <metadata
     id="metadata5">
    <rdf:RDF>
      <cc:Work
         rdf:about="">
        <dc:format>image/svg+xml</dc:format>
        <dc:type
           rdf:resource="http://purl.org/dc/dcmitype/StillImage" />
        <dc:title></dc:title>
      </cc:Work>
    </rdf:RDF>
  </metadata>
  <g
     transform="translate(-90.111134,-155.95677)"
     id="layer1"
     inkscape:groupmode="layer"
     inkscape:label="Layer 1" />
  <g
     transform="matrix(0.4,0,0,0.4,1.87907,0.17334366)"
     id="g886">
    <svg
       height="100%"
       width="100%"
       version="1.1"
       id="svg884">
      <path
         d="m 9.96,-0.43335915 c 1.453332,9.6e-7 2.559999,0.5933342 3.32,1.77999965 l 1.399999,-1.5399998 c 0.16,-0.15999897 0.26,-0.23999889 0.300001,-0.23999985 0.146665,9.6e-7 0.219999,0.0666676 0.22,0.19999977 L 13.94,4.8666401 c -0.06667,0.2400007 -0.133334,0.3666677 -0.2,0.3800001 l -0.02,0.020001 h -0.14 c -0.200001,0 -0.300001,-0.066667 -0.3,-0.1999998 l 0.06,-0.9800005 v -0.04 C 13.339999,2.3933082 12.82,1.2533088 11.78,0.62664082 L 11.76,0.60664132 C 11.293332,0.32664108 10.746666,0.18664074 10.12,0.18664072 8.7066669,0.18664074 7.3666663,0.71330738 6.0999999,1.7666407 5.7799997,2.0199747 5.4933329,2.2999744 5.2399998,2.6066408 3.9733331,4.0866404 3.1933331,5.9666405 2.8999999,8.2466402 c -0.053333,0.4133339 -0.08,0.7733336 -0.08,1.0800009 0,1.8666659 0.7066667,3.1266659 2.1200002,3.7799989 0.5466666,0.253334 1.146666,0.38 1.7999997,0.38 1.2533331,0 2.4799995,-0.486667 3.6800002,-1.46 0.933333,-0.786666 1.606666,-1.839999 2.02,-3.1599999 0.02667,-0.1333332 0.113332,-0.1999998 0.26,-0.1999998 0.16,0 0.24,0.066667 0.24,0.1999998 0,0.2400007 -0.153334,0.666667 -0.46,1.2800009 -0.413334,0.84 -0.993334,1.586666 -1.74,2.24 -1.3199999,1.146666 -2.7600005,1.719999 -4.3199999,1.719999 -1.706667,0 -3.0733338,-0.586666 -4.1000002,-1.759999 C 1.4399999,11.346641 1,10.10664 0.99999994,8.6266403 1,6.6399746 1.7266666,4.7799749 3.1799998,3.0466404 4.5266662,1.4333076 6.1199999,0.36664104 7.96,-0.15335944 c 0.6799994,-0.18666551 1.3466664,-0.27999875 2,-0.27999971 z"
         fill="black"
         id="path846" />
      <path
         d="m 18.08844,7.342639 c 0.177334,0 0.280001,0.032667 0.308001,0.098 v 0.014 c 0.0093,0.028 0.014,0.1119995 0.014,0.2519999 v 7.8540001 c 0,0.28 0.056,0.457334 0.168,0.532001 0.158666,0.09333 0.536667,0.139999 1.134,0.139999 h 0.448 v 0.434 c -0.326665,-0.028 -1.082666,-0.042 -2.267999,-0.042 -1.185333,0 -1.941334,0.014 -2.268001,0.042 v -0.434 h 0.448001 c 0.718666,0 1.129334,-0.084 1.231999,-0.252 l 0.014,-0.014 c 0.03733,-0.07467 0.056,-0.210001 0.056,-0.406001 V 8.3086395 c -0.485334,0.2426663 -1.096668,0.3639994 -1.834,0.3639994 v -0.434 c 1.119999,0 1.969332,-0.298667 2.547999,-0.8959999 z"
         fill="black"
         id="path848" />
      <path
         d="m 29.15004,10.20664 h 11.940002 c 0.426666,0 0.653332,0.133333 0.68,0.4 0,0.266667 -0.220001,0.4 -0.660003,0.4 H 29.130041 c -0.426668,0 -0.646667,-0.133333 -0.66,-0.4 -2e-6,-0.266667 0.226666,-0.4 0.679999,-0.4 z m -0.02,-3.8799994 h 11.979998 c 0.426666,0 0.646667,0.1333332 0.660003,0.3999996 0,0.2666669 -0.226669,0.4000001 -0.68,0.4000001 H 29.15004 c -0.426667,0 -0.653332,-0.1333332 -0.679999,-0.4000001 -2e-6,-0.2666664 0.22,-0.3999996 0.66,-0.3999996 z"
         fill="black"
         id="path850" />
      <path
         d="m 58.42123,-0.43335915 c 1.453335,9.6e-7 2.560002,0.5933342 3.32,1.77999965 l 1.400002,-1.5399998 c 0.159999,-0.15999897 0.259998,-0.23999889 0.299999,-0.23999985 0.146667,9.6e-7 0.220001,0.0666676 0.220001,0.19999977 L 62.40123,4.8666401 c -0.06667,0.2400007 -0.133331,0.3666677 -0.199997,0.3800001 l -0.02,0.020001 h -0.14 c -0.199997,0 -0.299999,-0.066667 -0.299999,-0.1999998 l 0.06,-0.9800005 v -0.04 c 0,-1.6533327 -0.52,-2.7933321 -1.560001,-3.42000008 l -0.02,-0.0199995 c -0.466668,-0.27999974 -1.013333,-0.42000008 -1.64,-0.4200001 -1.41333,2e-8 -2.753334,0.52666666 -4.02,1.57999998 -0.32,0.253334 -0.606667,0.5333337 -0.859997,0.8400001 -1.26667,1.4799996 -2.046669,3.3599997 -2.34,5.6399994 -0.05333,0.4133339 -0.08,0.7733336 -0.08,1.0800009 0,1.8666664 0.706669,3.1266664 2.119999,3.7799994 0.546669,0.253334 1.146667,0.38 1.800003,0.38 1.25333,0 2.479996,-0.486667 3.68,-1.46 0.933331,-0.786666 1.606663,-1.839999 2.019997,-3.1600004 0.02667,-0.1333332 0.113335,-0.1999998 0.260002,-0.1999998 0.16,0 0.239998,0.066667 0.239998,0.1999998 0,0.2400007 -0.153332,0.666667 -0.459999,1.2800014 -0.413334,0.84 -0.993332,1.586666 -1.739998,2.24 -1.32,1.146666 -2.760002,1.719999 -4.32,1.719999 -1.706669,0 -3.073334,-0.586666 -4.100002,-1.759999 -0.880001,-1 -1.32,-2.240001 -1.32,-3.7200012 0,-1.9866657 0.726666,-3.8466654 2.180001,-5.5799999 1.346664,-1.6133328 2.939998,-2.67999936 4.779998,-3.19999984 0.680001,-0.18666551 1.346669,-0.27999875 2,-0.27999971 z"
         fill="black"
         id="path852" />
      <path
         d="m 66.073669,7.342639 c 1.026673,0 1.824669,0.345334 2.394005,1.0360002 0.326668,0.4013329 0.513329,0.8773327 0.559998,1.4279995 0.0093,0.084001 0.014,0.1680012 0.014,0.2520013 0,0.681333 -0.256668,1.329999 -0.769997,1.945999 -0.270668,0.317333 -0.690666,0.737333 -1.260002,1.26 l -0.854004,0.756 -0.139999,0.126 -1.483994,1.442 h 2.519997 c 0.821335,0 1.264663,-0.03733 1.330002,-0.112 0.09333,-0.130666 0.195999,-0.546 0.307998,-1.246 h 0.349999 l -0.391999,2.436 h -5.194 c 0,-0.233333 0.028,-0.382667 0.084,-0.448 l 0.07,-0.07 2.688003,-2.996001 c 0.979996,-1.101333 1.469994,-2.132666 1.469994,-3.093999 0,-0.830667 -0.251999,-1.4606671 -0.755997,-1.8900008 l -0.014,-0.014 h -0.014 C 66.685005,7.9026394 66.321007,7.776639 65.89167,7.776639 c -0.671997,0 -1.208664,0.2893333 -1.61,0.868 -0.112,0.1680002 -0.20533,0.3546667 -0.279999,0.5600004 0.028,-0.00933 0.08867,-0.014 0.181999,-0.014 0.373337,0 0.611336,0.1680002 0.714005,0.5039997 v 0.014 c 0.01866,0.065333 0.028,0.1353341 0.028,0.2100001 0,0.3733338 -0.177337,0.6113328 -0.532005,0.7139998 -0.07466,0.01867 -0.139999,0.028 -0.195999,0.028 -0.345329,1e-6 -0.573998,-0.144666 -0.685997,-0.434 -0.03733,-0.102666 -0.056,-0.219333 -0.056,-0.3500006 0,-0.7186661 0.275334,-1.3346653 0.825997,-1.8479996 C 64.776338,7.5713062 65.373673,7.342639 66.07367,7.342639 Z"
         fill="black"
         id="path854" />
      <path
         d="M 77.611275,10.20664 H 89.55127 c 0.426666,0 0.653335,0.133333 0.68,0.4 0,0.266667 -0.220001,0.4 -0.659996,0.4 H 77.59127 c -0.426666,0 -0.646667,-0.133333 -0.659996,-0.4 0,-0.266667 0.226662,-0.4 0.680001,-0.4 z M 77.59127,6.3266406 h 11.980004 c 0.426666,0 0.646667,0.1333332 0.659996,0.3999996 0,0.2666669 -0.226662,0.4000001 -0.68,0.4000001 H 77.611275 c -0.426667,0 -0.653336,-0.1333332 -0.680001,-0.4000001 0,-0.2666664 0.219994,-0.3999996 0.659996,-0.3999996 z"
         fill="black"
         id="path856" />
      <path
         d="m 101.66246,0.34664059 c 1.46667,0 2.60667,0.49333381 3.42,1.47999941 0.46667,0.5733339 0.73334,1.2533342 0.8,2.0400001 0.0133,0.1199999 0.02,0.2400007 0.02,0.3600006 0,0.9733334 -0.36667,1.8999996 -1.10001,2.7799997 -0.38667,0.4533334 -0.98666,1.0533333 -1.8,1.8000002 l -1.22,1.0799999 -0.2,0.1800005 -2.119997,2.059999 h 3.599997 c 1.17333,0 1.80667,-0.05333 1.9,-0.16 0.13333,-0.186666 0.28,-0.78 0.44001,-1.78 h 0.5 l -0.56001,3.48 h -7.419998 c 0,-0.333333 0.04,-0.546666 0.120003,-0.64 l 0.1,-0.1 3.839995,-4.2800002 c 1.4,-1.5733338 2.1,-3.0466662 2.1,-4.4200001 0,-1.1866655 -0.35999,-2.0866661 -1.08,-2.6999998 l -0.02,-0.020001 h -0.02 c -0.42666,-0.3599996 -0.94667,-0.53999993 -1.55999,-0.53999999 -0.96001,6e-8 -1.726672,0.41333299 -2.300006,1.23999979 -0.160004,0.2400008 -0.293335,0.5066672 -0.400002,0.8000002 0.04,-0.013332 0.126671,-0.019999 0.260002,-0.02 0.533333,1e-6 0.87333,0.2400008 1.019997,0.7199993 v 0.020001 c 0.02667,0.093333 0.04,0.1933336 0.04,0.3000002 0,0.5333328 -0.253321,0.873333 -0.759989,1.0199995 -0.106667,0.026667 -0.199997,0.04 -0.279999,0.04 -0.493332,0 -0.82,-0.206667 -0.979996,-0.6199999 -0.05334,-0.1466666 -0.08,-0.3133335 -0.08,-0.5 0,-1.0266667 0.393334,-1.9066668 1.180001,-2.6400004 0.706665,-0.65333268 1.559983,-0.97999951 2.559983,-0.97999951 z"
         fill="black"
         id="path858" />
      <path
         d="m 116.36697,4.3666401 c 0.37333,0 0.54,0.2400007 0.5,0.7200003 l -0.28,3.1999998 2.51999,-1.8599997 c 0.16001,-0.1199999 0.29334,-0.1799998 0.40001,-0.1799998 0.23999,0 0.40667,0.1199999 0.5,0.3599996 0.0267,0.066667 0.04,0.1333337 0.04,0.2000003 0,0.2266665 -0.14,0.4000001 -0.42,0.52 l -2.84001,1.3599992 2.90001,1.3600002 c 0.23999,0.12 0.36,0.286667 0.36,0.5 0,0.253333 -0.12667,0.426667 -0.38,0.520001 -0.0533,0.02667 -0.10667,0.04 -0.16,0.04 -0.10667,0 -0.35334,-0.146666 -0.74,-0.44 l -2.18,-1.5799996 0.28,3.1599996 c 0.04,0.493334 -0.13334,0.74 -0.52,0.74 -0.24001,0 -0.4,-0.106667 -0.48,-0.32 -0.0267,-0.06667 -0.0333,-0.14 -0.02,-0.22 v -0.1 l 0.28,-3.2800001 -2.52001,1.8600001 c -0.15999,0.119999 -0.29333,0.179999 -0.4,0.179999 -0.24,0 -0.40666,-0.119999 -0.5,-0.36 -0.0267,-0.06667 -0.04,-0.133333 -0.04,-0.2 0,-0.226666 0.14,-0.399999 0.42,-0.52 l 2.82,-1.3599997 -2.82,-1.3399997 c -0.28,-0.1199999 -0.42,-0.2933335 -0.42,-0.52 0,-0.2533331 0.12666,-0.4266667 0.38,-0.52 0.0533,-0.026667 0.10666,-0.04 0.15999,-0.04 0.08,0 0.21334,0.066667 0.4,0.1999998 l 2.52001,1.8399997 -0.28,-3.1799994 V 4.8866405 c -0.0533,-0.2133331 0.04,-0.3666658 0.28,-0.46 l 0.02,-0.02 h 0.02 c 0.0667,-0.026667 0.13333,-0.04 0.2,-0.04 z"
         fill="black"
         id="path860" />
      <path
         d="m 135.77147,-0.43335915 c 1.45332,9.6e-7 2.56,0.5933342 3.31999,1.77999965 l 1.4,-1.5399998 c 0.16,-0.15999897 0.26,-0.23999889 0.3,-0.23999985 0.14667,9.6e-7 0.22,0.0666676 0.22,0.19999977 l -1.26,5.09999948 c -0.0667,0.2400007 -0.13333,0.3666677 -0.19999,0.3800001 l -0.02,0.020001 h -0.14 c -0.19999,0 -0.3,-0.066667 -0.3,-0.1999998 l 0.06,-0.9800005 v -0.04 c 0,-1.6533327 -0.51999,-2.7933321 -1.56,-3.42000008 l -0.02,-0.0199995 c -0.46666,-0.27999974 -1.01332,-0.42000008 -1.64,-0.4200001 -1.41333,2e-8 -2.75333,0.52666666 -4.01999,1.57999998 -0.32001,0.253334 -0.60668,0.5333337 -0.86,0.8400001 -1.26668,1.4799996 -2.04668,3.3599997 -2.34001,5.6399994 -0.0533,0.4133339 -0.08,0.7733336 -0.08,1.0800009 0,1.8666664 0.70666,3.1266664 2.11999,3.7799994 0.54667,0.253334 1.14667,0.38 1.80001,0.38 1.25332,0 2.47999,-0.486667 3.67999,-1.46 0.93333,-0.786666 1.60667,-1.839999 2.02,-3.1600004 0.0267,-0.1333332 0.11333,-0.1999998 0.26,-0.1999998 0.16,0 0.24,0.066667 0.24,0.1999998 0,0.2400007 -0.15333,0.666667 -0.46,1.2800014 -0.41333,0.84 -0.99333,1.586666 -1.73999,2.24 -1.32001,1.146666 -2.76001,1.719999 -4.32001,1.719999 -1.70666,0 -3.07333,-0.586666 -4.09999,-1.759999 -0.88001,-1 -1.32001,-2.240001 -1.32001,-3.7200012 0,-1.9866657 0.72667,-3.8466654 2.18,-5.5799999 1.34667,-1.6133328 2.94,-2.67999936 4.78001,-3.19999984 0.67999,-0.18666551 1.34666,-0.27999875 2,-0.28000021 z"
         fill="black"
         id="path862" />
      <path
         d="m 143.19989,7.1046391 1.84801,0.042 h 0.014 l 2.05801,-0.042 h 0.014 c 0.14933,0 0.22399,0.056 0.22399,0.1680002 0,0.149333 -0.0607,0.2333336 -0.18199,0.2519998 -0.056,0.00933 -0.17267,0.014 -0.35,0.014 -0.73734,0 -1.176,0.079333 -1.316,0.2379999 -0.056,0.065333 -0.11201,0.2053337 -0.16801,0.4200001 l -1.89,7.5599999 c -0.0467,0.168001 -0.07,0.275334 -0.07,0.322001 0,0.07466 0.042,0.121332 0.12599,0.139999 h 0.056 c 0.056,0.0093 0.15866,0.014 0.308,0.014 h 1.316 c 1.36267,0 2.352,-0.541333 2.968,-1.624 0.15866,-0.28 0.34067,-0.7 0.546,-1.26 0.0747,-0.177332 0.13533,-0.270667 0.182,-0.279999 l 0.014,-0.014 h 0.042 c 0.10266,1e-6 0.15866,0.05133 0.16799,0.154 0,0.028 -0.0187,0.09333 -0.056,0.196 l -1.10601,3.023999 c -0.0467,0.140002 -0.10733,0.214669 -0.18199,0.224001 h -0.014 c -0.0373,0.0093 -0.11667,0.014 -0.23799,0.014 h -6.48201 c -0.23332,0 -0.35933,-0.05133 -0.37799,-0.153999 0,-0.168001 0.07,-0.261333 0.20999,-0.280001 h 0.168 c 0.60668,0 0.97067,-0.06533 1.09201,-0.195999 0.056,-0.06533 0.112,-0.196001 0.168,-0.392001 0,-0.0093 0.005,-0.03267 0.014,-0.07 l 1.87601,-7.5180003 c 0.0373,-0.149333 0.056,-0.2379989 0.056,-0.2659998 0,-0.1120004 -0.0747,-0.1820001 -0.224,-0.21 h -0.014 -0.014 c -0.028,0 -0.07,-0.00467 -0.12601,-0.014 -0.15866,-0.018666 -0.33599,-0.028 -0.53199,-0.028 -0.24266,0 -0.37334,-0.051334 -0.392,-0.1540003 0,-0.1866665 0.0887,-0.2799997 0.26599,-0.2800005 z"
         fill="black"
         id="path864" />
      <path
         d="m 156.89816,8.2666397 h 10.9 c 0.42666,0 0.64666,0.1333342 0.66,0.4000006 0,0.2666673 -0.22,0.4000006 -0.66,0.4000006 h -10.9 c -0.42668,0 -0.64666,-0.1333333 -0.66,-0.4000006 0,-0.2666664 0.22,-0.4000006 0.66,-0.4000006 z"
         fill="black"
         id="path866" />
      <path
         d="m 179.31824,0.34664059 c 1.46666,0 2.60666,0.49333381 3.42,1.47999941 0.46666,0.5733339 0.73332,1.2533342 0.8,2.0400001 0.0133,0.1199999 0.02,0.2400007 0.02,0.3600006 0,0.9733334 -0.36667,1.8999996 -1.09999,2.7799997 -0.38668,0.4533334 -0.98668,1.0533333 -1.80001,1.8000002 l -1.22,1.0799999 -0.19999,0.1800005 -2.12001,2.059999 h 3.6 c 1.17334,0 1.80667,-0.05333 1.9,-0.16 0.13334,-0.186666 0.27999,-0.78 0.44,-1.78 h 0.5 l -0.56,3.48 h -7.42 c 0,-0.333333 0.04,-0.546666 0.12,-0.64 l 0.1,-0.1 3.84,-4.2800002 c 1.40001,-1.5733338 2.10001,-3.0466662 2.10001,-4.4200001 0,-1.1866655 -0.36001,-2.0866661 -1.08001,-2.6999998 l -0.02,-0.020001 h -0.02 c -0.42667,-0.3599996 -0.94666,-0.53999993 -1.56,-0.53999999 -0.95999,6e-8 -1.72667,0.41333299 -2.30001,1.23999979 -0.15998,0.2400008 -0.29332,0.5066672 -0.39999,0.8000002 0.04,-0.013332 0.12666,-0.019999 0.26,-0.02 0.53334,1e-6 0.87333,0.2400008 1.02,0.7199993 v 0.020001 c 0.0267,0.093333 0.04,0.1933336 0.04,0.3000002 0,0.5333328 -0.25334,0.873333 -0.76001,1.0199995 -0.10666,0.026667 -0.2,0.04 -0.28,0.04 -0.49333,0 -0.81999,-0.206667 -0.98,-0.6199999 -0.0533,-0.1466666 -0.08,-0.3133335 -0.08,-0.5 0,-1.0266667 0.39333,-1.9066668 1.17999,-2.6400004 0.70668,-0.65333268 1.56002,-0.97999951 2.56002,-0.97999951 z"
         fill="black"
         id="path868" />
      <path
         d="m 194.02274,4.3666401 c 0.37333,0 0.53999,0.2400007 0.5,0.7200003 l -0.28,3.1999998 2.52,-1.8599997 c 0.15999,-0.1199999 0.29332,-0.1799998 0.39999,-0.1799998 0.24001,0 0.40667,0.1199999 0.5,0.3599996 0.0267,0.066667 0.04,0.1333337 0.04,0.2000003 0,0.2266665 -0.14,0.4000001 -0.42,0.52 l -2.84,1.3599992 2.90001,1.3600002 c 0.23999,0.12 0.35999,0.286667 0.35999,0.5 0,0.253333 -0.12666,0.426667 -0.37999,0.520001 -0.0533,0.02667 -0.10668,0.04 -0.16001,0.04 -0.10667,0 -0.35333,-0.146666 -0.74,-0.44 l -2.17999,-1.5799996 0.28,3.1599996 c 0.04,0.493334 -0.13334,0.74 -0.52001,0.74 -0.23999,0 -0.39999,-0.106667 -0.47999,-0.32 -0.0267,-0.06667 -0.0333,-0.14 -0.02,-0.22 v -0.1 l 0.28,-3.2800001 -2.51999,1.8600001 c -0.16,0.119999 -0.29333,0.179999 -0.40001,0.179999 -0.23999,0 -0.40666,-0.119999 -0.5,-0.36 -0.0267,-0.06667 -0.04,-0.133333 -0.04,-0.2 0,-0.226666 0.14,-0.399999 0.42,-0.52 l 2.81999,-1.3599997 -2.81999,-1.3399997 c -0.28,-0.1199999 -0.42,-0.2933335 -0.42,-0.52 0,-0.2533331 0.12666,-0.4266667 0.37999,-0.52 0.0533,-0.026667 0.10667,-0.04 0.16,-0.04 0.08,0 0.21334,0.066667 0.40001,0.1999998 l 2.51999,1.8399997 -0.28,-3.1799994 V 4.8866405 c -0.0533,-0.2133331 0.04,-0.3666658 0.28,-0.46 l 0.02,-0.02 h 0.02 c 0.0667,-0.026667 0.13333,-0.04 0.2,-0.04 z"
         fill="black"
         id="path870" />
      <path
         d="m 213.42723,-0.43335915 c 1.45332,9.6e-7 2.56,0.5933342 3.31999,1.77999965 l 1.4,-1.5399998 c 0.16,-0.15999897 0.26001,-0.23999889 0.3,-0.23999985 0.14667,9.6e-7 0.22,0.0666676 0.22,0.19999977 l -1.25999,5.09999948 c -0.0667,0.2400007 -0.13333,0.3666677 -0.2,0.3800001 l -0.02,0.020001 h -0.14 c -0.2,0 -0.30001,-0.066667 -0.30001,-0.1999998 l 0.06,-0.9800005 v -0.04 c 0,-1.6533327 -0.51999,-2.7933321 -1.56,-3.42000008 l -0.02,-0.0199995 c -0.46666,-0.27999974 -1.01332,-0.42000008 -1.64,-0.4200001 -1.41333,2e-8 -2.75333,0.52666666 -4.01999,1.57999998 -0.32001,0.253334 -0.60667,0.5333337 -0.86,0.8400001 -1.26668,1.4799996 -2.04668,3.3599997 -2.34001,5.6399994 -0.0533,0.4133339 -0.08,0.7733336 -0.08,1.0800009 0,1.8666664 0.70667,3.1266664 2.12,3.7799994 0.54666,0.253334 1.14666,0.38 1.8,0.38 1.25333,0 2.48,-0.486667 3.67999,-1.46 0.93334,-0.786666 1.60668,-1.839999 2.02001,-3.1600004 0.0266,-0.1333332 0.11332,-0.1999998 0.25999,-0.1999998 0.16,0 0.24001,0.066667 0.24001,0.1999998 0,0.2400007 -0.15334,0.666667 -0.46001,1.2800014 -0.41333,0.84 -0.99333,1.586666 -1.73999,2.24 -1.32001,1.146666 -2.76001,1.719999 -4.32001,1.719999 -1.70666,0 -3.07333,-0.586666 -4.09999,-1.759999 -0.88,-1 -1.32001,-2.240001 -1.32001,-3.7200012 0,-1.9866657 0.72667,-3.8466654 2.18,-5.5799999 1.34668,-1.6133328 2.94,-2.67999936 4.78001,-3.19999984 0.67999,-0.18666551 1.34667,-0.27999875 2,-0.27999971 z"
         fill="black"
         id="path872" />
      <path
         d="m 221.97568,10.47864 c 0.73733,0 1.246,0.228666 1.526,0.685999 0.0933,0.158667 0.14,0.331334 0.14,0.518 0,0.42 -0.15868,0.672 -0.476,0.756 -0.056,0.01867 -0.112,0.028 -0.168,0.028 -0.26134,-0.03733 -0.40601,-0.172666 -0.43401,-0.406 0,-0.251999 0.126,-0.438666 0.37801,-0.56 0.0933,-0.04667 0.19133,-0.07 0.29399,-0.07 -0.196,-0.410666 -0.616,-0.625334 -1.25999,-0.644 -0.75601,0 -1.25067,0.284667 -1.48401,0.854 -0.056,0.140001 -0.084,0.275334 -0.084,0.405999 0,0.364001 0.224,0.611334 0.672,0.742001 l 0.014,0.014 c 0.0653,0.01867 0.19133,0.04667 0.37801,0.084 0.57866,0.121334 0.96599,0.252 1.16199,0.392 0.084,0.056 0.16334,0.121334 0.238,0.196 0.28934,0.289333 0.43401,0.63 0.43401,1.022 0,0.485334 -0.18201,0.947334 -0.54601,1.386 -0.52267,0.625334 -1.27867,0.938 -2.268,0.938 -0.868,0 -1.47,-0.242667 -1.806,-0.727999 -0.13066,-0.186668 -0.196,-0.396668 -0.196,-0.630001 0,-0.457333 0.17734,-0.751333 0.532,-0.882 0.084,-0.028 0.168,-0.042 0.252,-0.042 0.30801,0.04667 0.48066,0.21 0.518,0.49 0,0.289333 -0.12599,0.504001 -0.378,0.644 -0.14933,0.09333 -0.31733,0.126 -0.504,0.098 0.21467,0.494667 0.74667,0.742001 1.59601,0.742001 0.96133,0 1.59132,-0.35 1.89,-1.050001 0.0747,-0.177333 0.112,-0.340666 0.112,-0.49 0,-0.448 -0.27533,-0.755999 -0.82601,-0.924 h -0.014 c -0.14,-0.03733 -0.34534,-0.084 -0.61601,-0.14 -0.84,-0.177333 -1.31133,-0.550666 -1.41399,-1.12 -0.0187,-0.084 -0.028,-0.172666 -0.028,-0.266 0,-0.466666 0.17732,-0.900666 0.532,-1.302 0.43866,-0.494666 1.04999,-0.741999 1.834,-0.741999 z"
         fill="black"
         id="path874" />
      <path
         d="m 227.48817,7.9026394 c 0.24266,0 0.37801,0.1260004 0.40601,0.3779993 0,0.056001 -0.19134,0.8400011 -0.574,2.3520003 h 1.23199 c 0.24268,0 0.37334,0.05133 0.392,0.154 0,0.168 -0.0747,0.261334 -0.224,0.28 h -0.014 -0.18201 -1.31599 l -1.036,4.13 c -0.056,0.233334 -0.084,0.457334 -0.084,0.672 0,0.429333 0.14465,0.644001 0.43399,0.644001 0.616,0 1.15733,-0.452667 1.62401,-1.358001 l 0.196,-0.434 c 0.056,-0.121333 0.12599,-0.186666 0.20999,-0.196 0.112,0 0.168,0.04667 0.168,0.14 0,0.121334 -0.12132,0.387333 -0.364,0.798 -0.54134,0.905334 -1.162,1.358 -1.862,1.358 -0.54133,0 -0.92399,-0.223999 -1.14799,-0.671999 -0.0933,-0.186668 -0.14,-0.392001 -0.14,-0.616 0,-0.177334 0.28466,-1.386001 0.854,-3.626001 l 0.20999,-0.84 h -1.23199 c -0.23334,0 -0.35935,-0.03733 -0.37801,-0.112 h -0.014 v -0.056 c 0,-0.158667 0.0747,-0.247334 0.224,-0.266001 h 0.196 1.31599 l 0.54601,-2.2259999 c 0.084,-0.3266659 0.27066,-0.4946661 0.55999,-0.5039997 z"
         fill="black"
         id="path876" />
      <path
         d="m 231.25575,10.47864 c 0.52266,0 0.90067,0.223999 1.13399,0.671999 0.056,0.102666 0.098,0.214667 0.12601,0.336 0.009,0.01867 0.014,0.042 0.014,0.07 0.54134,-0.671999 1.13867,-1.031332 1.79201,-1.077999 0.52266,0 0.87733,0.181999 1.06399,0.545999 0.0653,0.112001 0.098,0.233334 0.098,0.364 0,0.364001 -0.15401,0.616 -0.46201,0.756 -0.10266,0.04667 -0.20533,0.07 -0.30799,0.07 -0.28934,0 -0.46201,-0.126001 -0.51801,-0.378001 -0.009,-0.03733 -0.014,-0.07467 -0.014,-0.112 0,-0.308 0.15866,-0.536666 0.476,-0.686 l 0.014,-0.014 c 0.0747,-0.028 0.15399,-0.05133 0.23799,-0.07 l -0.27999,-0.126 c -0.12134,-0.01867 -0.224,-0.03267 -0.308,-0.042 -0.392,0 -0.76534,0.154 -1.12,0.462 -0.28934,0.261334 -0.53667,0.606668 -0.742,1.036 -0.0187,0.04667 -0.0327,0.084 -0.042,0.112 l -0.448,1.820001 -0.56,2.211998 c -0.084,0.242669 -0.25666,0.373335 -0.518,0.392001 -0.23332,-0.04667 -0.36867,-0.172667 -0.40599,-0.378001 0,0.01867 0.042,-0.181999 0.12599,-0.601999 l 0.81201,-3.233999 c 0.14932,-0.597334 0.224,-0.989334 0.224,-1.176001 0,-0.429332 -0.14467,-0.644 -0.434,-0.644 -0.38266,0 -0.69533,0.443334 -0.93801,1.33 -0.028,0.102667 -0.056,0.214667 -0.084,0.336 -0.10266,0.205333 -0.18199,0.312667 -0.23799,0.322 -0.112,0 -0.168,-0.04667 -0.168,-0.139999 0,-0.149334 0.084,-0.462 0.252,-0.938001 0.0653,-0.168 0.12599,-0.308 0.18199,-0.42 0.224,-0.457333 0.504,-0.718666 0.84,-0.783999 0.0653,-0.0093 0.13067,-0.014 0.19601,-0.014 z"
         fill="black"
         id="path878" />
      <path
         d="m 239.64398,10.786639 c -0.48533,0 -0.94732,0.317334 -1.386,0.952001 -0.084,0.121332 -0.16333,0.251999 -0.23799,0.391999 -0.27068,0.541333 -0.49934,1.311334 -0.68601,2.31 -0.056,0.317334 -0.084,0.569334 -0.084,0.756 0,0.634667 0.17734,1.045333 0.532,1.231999 0.10266,0.056 0.224,0.084 0.364,0.084 0.52268,0 1.05,-0.331333 1.582,-0.994 0.13068,-0.149334 0.21933,-0.303334 0.26601,-0.462 v -0.014 c 0.009,-0.01867 0.014,-0.03267 0.014,-0.042 l 0.7,-2.744 c 0.028,-0.14 0.042,-0.219333 0.042,-0.238 0,-0.196 -0.084,-0.434 -0.25199,-0.713999 -0.20534,-0.345333 -0.49001,-0.518001 -0.85401,-0.518001 z m -0.014,-0.307999 c 0.56932,0 0.99866,0.298666 1.28799,0.896 0.0467,-0.317334 0.19133,-0.513334 0.43401,-0.588001 0.0467,-0.01867 0.098,-0.028 0.15399,-0.028 0.24268,0 0.37801,0.126001 0.40601,0.378 0,0.056 -0.0327,0.214667 -0.098,0.475999 l -0.504,1.960001 c -0.14,0.588 -0.24266,1.008 -0.308,1.260001 -0.12133,0.485332 -0.182,0.830666 -0.182,1.035999 0,0.429333 0.14001,0.644001 0.42001,0.644001 0.35466,0 0.65332,-0.373335 0.896,-1.120001 0.0467,-0.158666 0.10266,-0.364 0.168,-0.616 0.0747,-0.158667 0.13999,-0.242666 0.19599,-0.252 0.112,0 0.168,0.04667 0.168,0.14 0,0.140001 -0.084,0.466667 -0.25199,0.98 -0.056,0.158667 -0.112,0.294001 -0.168,0.406001 -0.26134,0.513332 -0.60668,0.769999 -1.036,0.769999 -0.52267,0 -0.90068,-0.223999 -1.134,-0.671999 -0.0653,-0.112 -0.112,-0.238001 -0.14,-0.378001 -0.588,0.700001 -1.19467,1.05 -1.82001,1.05 -0.7,0 -1.218,-0.317334 -1.554,-0.952 -0.20532,-0.373333 -0.308,-0.802667 -0.308,-1.288 0,-1.008 0.35001,-1.941333 1.05,-2.799999 0.65334,-0.784001 1.36268,-1.213333 2.12801,-1.288 0.0653,-0.0093 0.13066,-0.014 0.196,-0.014 z"
         fill="black"
         id="path880" />
      <path
         d="m 245.35023,10.47864 c 0.49468,0 0.84,0.209999 1.036,0.629999 0.0747,0.158666 0.112,0.331334 0.112,0.518 0,0.196 -0.0933,0.532 -0.28,1.008001 -0.476,1.231999 -0.71399,2.146666 -0.71399,2.743999 0,0.756001 0.28932,1.134001 0.868,1.134001 0.54133,0 1.01266,-0.289333 1.414,-0.868001 0.0933,-0.139999 0.14934,-0.247333 0.168,-0.322 l 0.63,-2.52 c 0.0653,-0.308 0.15866,-0.681334 0.28,-1.12 0.0933,-0.401333 0.15866,-0.653333 0.196,-0.755999 0.12132,-0.196001 0.28467,-0.294001 0.48999,-0.294001 0.23334,0.04667 0.36867,0.172666 0.40601,0.378 0,0.084 -0.0187,0.191334 -0.056,0.322001 l -1.344,5.347999 c -0.224,0.914667 -0.72334,1.656668 -1.498,2.226 -0.56933,0.42 -1.162,0.630001 -1.778,0.630001 -0.62533,0 -1.06868,-0.214668 -1.33,-0.644001 -0.10268,-0.177334 -0.15401,-0.368666 -0.15401,-0.573999 0,-0.476 0.19133,-0.770001 0.57401,-0.882 0.0747,-0.01867 0.14467,-0.028 0.20999,-0.028 0.29868,0 0.46668,0.130667 0.50401,0.392 0.009,0.028 0.014,0.06067 0.014,0.098 0,0.214666 -0.0933,0.406 -0.28,0.573999 -0.13066,0.112 -0.33133,0.168001 -0.60201,0.168001 0.168,0.391999 0.52268,0.588 1.06401,0.588 0.57866,0 1.092,-0.294001 1.54,-0.882 0.36399,-0.485335 0.65333,-1.143334 0.86799,-1.974001 0.009,-0.03733 0.0233,-0.098 0.042,-0.182 -0.42,0.420001 -0.89134,0.63 -1.414,0.63 -0.74668,0 -1.25534,-0.275334 -1.526,-0.826 -0.12134,-0.242667 -0.18201,-0.522667 -0.18201,-0.84 0,-0.513333 0.24735,-1.432667 0.742,-2.758 0.0187,-0.056 0.042,-0.116667 0.07,-0.181999 0.15866,-0.429334 0.23799,-0.756001 0.23799,-0.980001 0,-0.298667 -0.11667,-0.448 -0.34999,-0.448 -0.51333,0 -0.93333,0.424667 -1.26001,1.274 v 0.014 c -0.056,0.140001 -0.10733,0.289334 -0.15399,0.448 -0.10268,0.158667 -0.17734,0.242667 -0.224,0.252 -0.112,0 -0.168,-0.04667 -0.168,-0.139999 0,-0.168 0.098,-0.462 0.29399,-0.882 0.41068,-0.849334 0.92867,-1.274 1.554,-1.274 z"
         fill="black"
         id="path882" />
    </svg>
  </g>
  <g
     transform="matrix(0.4,0,0,0.4,-0.39999998,9.6015537)"
     id="g979">
    <svg
       height="100%"
       width="100%"
       version="1.1"
       id="svg977">
      <path
         d="m 9.96,0.90000057 c 1.453332,9.6e-7 2.559999,0.59333423 3.32,1.77999973 l 1.399999,-1.5399998 c 0.16,-0.15999905 0.26,-0.23999897 0.300001,-0.23999993 0.146665,9.6e-7 0.219999,0.0666676 0.22,0.19999983 l -1.26,5.0999994 c -0.06667,0.2400007 -0.133334,0.3666678 -0.2,0.3800001 l -0.02,0.020001 h -0.14 c -0.200001,0 -0.300001,-0.066667 -0.3,-0.1999998 l 0.06,-0.9800005 v -0.04 C 13.339999,3.7266674 12.82,2.586668 11.78,1.96 L 11.76,1.940001 c -0.466667,-0.2799997 -1.013333,-0.42 -1.639999,-0.42 -1.4133331,0 -2.7533337,0.5266666 -4.0200001,1.5799999 C 5.7800007,3.3533349 5.4933339,3.6333347 5.2400008,3.940001 3.9733341,5.4200006 3.1933341,7.3000007 2.9000009,9.5800004 c -0.053333,0.4133339 -0.08,0.7733336 -0.08,1.0799996 0,1.866667 0.7066667,3.126667 2.1200002,3.78 0.5466666,0.253334 1.146666,0.38 1.7999997,0.38 1.2533331,0 2.4799995,-0.486667 3.6800002,-1.46 0.933333,-0.786666 1.606666,-1.84 2.02,-3.159999 C 12.466665,10.066668 12.553332,10 12.7,10 c 0.16,0 0.24,0.06667 0.24,0.200001 0,0.24 -0.153334,0.666666 -0.46,1.279999 -0.413334,0.84 -0.993334,1.586667 -1.74,2.24 -1.3199999,1.146667 -2.7600005,1.72 -4.3199999,1.72 -1.706667,0 -3.0733338,-0.586667 -4.1000002,-1.76 C 1.4399999,12.68 1,11.440001 0.99999994,9.96 1,7.9733343 1.7266666,6.1133347 3.1799998,4.3800001 4.5266662,2.7666674 6.1199999,1.7000008 7.96,1.1800003 8.6399994,0.99333477 9.3066664,0.90000153 9.96,0.90000057 Z"
         fill="#000000"
         id="path935" />
      <path
         d="m 18.08844,8.6759996 c 0.177334,0 0.280001,0.032667 0.308001,0.098001 v 0.014 c 0.0093,0.028 0.014,0.1119995 0.014,0.2519999 v 7.8539985 c 0,0.280001 0.056,0.457335 0.168,0.532002 0.158666,0.09333 0.536667,0.139999 1.134,0.139999 h 0.448 V 18 c -0.326665,-0.028 -1.082666,-0.042 -2.267999,-0.042 -1.185333,0 -1.941334,0.014 -2.268001,0.042 v -0.434 h 0.448001 c 0.718666,0 1.129334,-0.084 1.231999,-0.252001 l 0.014,-0.014 c 0.03733,-0.07466 0.056,-0.209999 0.056,-0.406 V 9.6420002 C 16.889107,9.8846664 16.277773,10.006 15.540441,10.006 V 9.5719995 c 1.119999,0 1.969332,-0.2986669 2.547999,-0.8959999 z"
         fill="#000000"
         id="path937" />
      <path
         d="m 29.15004,11.54 h 11.940002 c 0.426666,0 0.653332,0.133333 0.68,0.400001 0,0.266666 -0.220001,0.399999 -0.660003,0.399999 H 29.130041 c -0.426668,0 -0.646667,-0.133333 -0.66,-0.399999 C 28.470039,11.673333 28.696707,11.54 29.15004,11.54 Z m -0.02,-3.8799997 h 11.979998 c 0.426666,0 0.646667,0.1333332 0.660003,0.3999992 0,0.2666673 -0.226669,0.4000005 -0.68,0.4000005 H 29.15004 c -0.426667,0 -0.653332,-0.1333332 -0.679999,-0.4000005 -2e-6,-0.266666 0.22,-0.3999992 0.66,-0.3999992 z"
         fill="#000000"
         id="path939" />
      <path
         d="m 58.42123,0.90000057 c 1.453335,9.6e-7 2.560002,0.59333423 3.32,1.77999973 l 1.400002,-1.5399998 c 0.159999,-0.15999905 0.259998,-0.23999897 0.299999,-0.23999993 0.146667,9.6e-7 0.220001,0.0666676 0.220001,0.19999983 L 62.40123,6.1999998 c -0.06667,0.2400007 -0.133331,0.3666678 -0.199997,0.3800001 l -0.02,0.020001 h -0.14 c -0.199997,0 -0.299999,-0.066667 -0.299999,-0.1999998 l 0.06,-0.9800005 v -0.04 c 0,-1.6533327 -0.52,-2.7933321 -1.560001,-3.4200001 l -0.02,-0.019999 c -0.466668,-0.2799997 -1.013333,-0.42 -1.64,-0.42 -1.41333,0 -2.753334,0.5266666 -4.02,1.5799999 -0.32,0.253334 -0.606667,0.5333338 -0.859997,0.8400001 -1.26667,1.4799996 -2.046669,3.3599997 -2.34,5.6399994 -0.05333,0.4133339 -0.08,0.7733341 -0.08,1.0800001 0,1.866667 0.706669,3.126667 2.119999,3.78 0.546669,0.253334 1.146667,0.38 1.800003,0.38 1.25333,0 2.479996,-0.486667 3.68,-1.46 0.933331,-0.786666 1.606663,-1.84 2.019997,-3.159999 C 60.927895,10.066668 61.014565,10 61.161232,10 c 0.16,0 0.239998,0.06667 0.239998,0.200001 0,0.24 -0.153332,0.666666 -0.459999,1.279999 -0.413334,0.84 -0.993332,1.586667 -1.739998,2.24 -1.32,1.146667 -2.760002,1.72 -4.32,1.72 -1.706669,0 -3.073334,-0.586667 -4.100002,-1.76 -0.880001,-1 -1.32,-2.239999 -1.32,-3.72 0,-1.9866657 0.726666,-3.8466653 2.180001,-5.5799999 1.346664,-1.6133327 2.939998,-2.6799993 4.779998,-3.1999998 0.680001,-0.18666553 1.346669,-0.27999877 2,-0.27999973 z"
         fill="#000000"
         id="path941" />
      <path
         d="m 66.073669,8.6759996 c 1.026673,0 1.824669,0.3453341 2.394005,1.0360003 0.326668,0.4013331 0.513329,0.8773331 0.559998,1.4279991 0.0093,0.084 0.014,0.168002 0.014,0.252001 0,0.681334 -0.256668,1.33 -0.769997,1.945999 -0.270668,0.317334 -0.690666,0.737334 -1.260002,1.260001 l -0.854004,0.756 -0.139999,0.126 -1.483994,1.442001 h 2.519997 c 0.821335,0 1.264663,-0.03734 1.330002,-0.112002 0.09333,-0.130666 0.195999,-0.545999 0.307998,-1.245999 h 0.349999 L 68.649673,18 h -5.194 c 0,-0.233334 0.028,-0.382668 0.084,-0.448 l 0.07,-0.07 2.688003,-2.996 c 0.979996,-1.101334 1.469994,-2.132667 1.469994,-3.094 0,-0.830666 -0.251999,-1.4606665 -0.755997,-1.8900001 l -0.014,-0.014 h -0.014 C 66.685005,9.2360001 66.321007,9.1099997 65.89167,9.1099997 c -0.671997,0 -1.208664,0.2893333 -1.61,0.868 -0.112,0.1680003 -0.20533,0.3546663 -0.279999,0.5600003 0.028,-0.0093 0.08867,-0.014 0.181999,-0.014 0.373337,0 0.611336,0.168 0.714005,0.504 v 0.014 c 0.01866,0.06533 0.028,0.135334 0.028,0.21 0,0.373334 -0.177337,0.611333 -0.532005,0.714 -0.07466,0.01867 -0.139999,0.028 -0.195999,0.028 -0.345329,1e-6 -0.573998,-0.144665 -0.685997,-0.434 -0.03733,-0.102665 -0.056,-0.219332 -0.056,-0.35 0,-0.718666 0.275334,-1.3346652 0.825997,-1.8479995 0.494667,-0.4573326 1.092002,-0.6859999 1.791999,-0.6859999 z"
         fill="#000000"
         id="path943" />
      <path
         d="M 77.611275,11.54 H 89.55127 c 0.426666,0 0.653335,0.133333 0.68,0.400001 0,0.266666 -0.220001,0.399999 -0.659996,0.399999 H 77.59127 c -0.426666,0 -0.646667,-0.133333 -0.659996,-0.399999 0,-0.266668 0.226662,-0.400001 0.680001,-0.400001 z M 77.59127,7.6600003 h 11.980004 c 0.426666,0 0.646667,0.1333332 0.659996,0.3999992 0,0.2666673 -0.226662,0.4000005 -0.68,0.4000005 H 77.611275 c -0.426667,0 -0.653336,-0.1333332 -0.680001,-0.4000005 0,-0.266666 0.219994,-0.3999992 0.659996,-0.3999992 z"
         fill="#000000"
         id="path945" />
      <path
         d="m 103.34246,0 c 0.13334,9.5367432e-7 0.20001,0.06666756 0.20001,0.2000007 0,0.0666667 -0.0867,0.18000037 -0.26001,0.3399992 -2.14666,2.1866675 -3.22,5.3400012 -3.22,9.4600001 0,4.106667 1.04667,7.226667 3.14,9.360001 0.22667,0.226665 0.34001,0.373333 0.34001,0.439998 0,0.133333 -0.0667,0.200001 -0.20001,0.200001 -0.16,0 -0.51333,-0.273335 -1.06,-0.82 -0.82666,-0.826667 -1.51333,-1.806667 -2.05999,-2.94 -0.880009,-1.813334 -1.320004,-3.893334 -1.320004,-6.24 0,-2.2533331 0.419998,-4.2866669 1.259994,-6.0999994 0.69334,-1.4799996 1.57333,-2.666667 2.64,-3.56000051 0.28,-0.22666543 0.46,-0.33999913632568 0.54,-0.34000009 z"
         fill="#000000"
         id="path947" />
      <path
         d="m 109.44026,1.6800003 c 1.46667,0 2.60667,0.4933338 3.42,1.4799995 0.46667,0.5733338 0.73334,1.2533341 0.8,2.04 0.0133,0.1199999 0.02,0.2400007 0.02,0.3600006 0,0.9733334 -0.36667,1.8999996 -1.10001,2.7799998 C 112.1936,8.7933331 111.5936,9.3933334 110.78027,10.14 l -1.22001,1.08 -0.2,0.18 -2.12,2.06 h 3.6 c 1.17334,0 1.80667,-0.05333 1.9,-0.16 0.13334,-0.186666 0.28,-0.78 0.44001,-1.78 h 0.5 L 113.12026,15 h -7.42 c 0,-0.333333 0.04,-0.546667 0.12001,-0.64 l 0.1,-0.1 3.83999,-4.2800005 c 1.4,-1.5733327 2.1,-3.0466651 2.1,-4.4199991 0,-1.1866655 -0.35999,-2.0866661 -1.07999,-2.6999998 l -0.02,-0.02 h -0.02 c -0.42666,-0.3599997 -0.94667,-0.54 -1.55999,-0.54 -0.96001,0 -1.72667,0.4133329 -2.30001,1.2399998 -0.16,0.2400007 -0.29333,0.5066671 -0.4,0.8000002 0.04,-0.013332 0.12667,-0.019999 0.26,-0.02 0.53334,1e-6 0.87333,0.2400008 1.02,0.7199994 v 0.02 c 0.0267,0.093333 0.04,0.1933336 0.04,0.3000002 0,0.5333328 -0.25333,0.873333 -0.76,1.0199995 -0.10667,0.026667 -0.2,0.04 -0.28,0.04 -0.49333,0 -0.82,-0.206667 -0.97999,-0.6199999 -0.0533,-0.1466665 -0.08,-0.3133335 -0.08,-0.5 0,-1.0266667 0.39334,-1.9066668 1.18,-2.6400004 0.70667,-0.6533327 1.56,-0.9799995 2.56,-0.9799995 z"
         fill="#000000"
         id="path949" />
      <path
         d="m 124.14476,5.6999998 c 0.37334,0 0.54,0.2400007 0.5,0.7200003 l -0.28,3.1999998 2.52,-1.8599997 c 0.16,-0.1199999 0.29333,-0.1799998 0.4,-0.1799998 0.24,0 0.40667,0.1199999 0.5,0.3599997 0.0267,0.066666 0.04,0.1333336 0.04,0.2000002 0,0.2266665 -0.14,0.4000006 -0.42,0.5199995 l -2.84,1.3600002 2.9,1.36 c 0.24,0.12 0.36,0.286667 0.36,0.5 0,0.253333 -0.12667,0.426667 -0.38,0.52 -0.0533,0.02667 -0.10667,0.04 -0.16,0.04 -0.10667,0 -0.35333,-0.146668 -0.74,-0.440001 l -2.18,-1.58 0.28,3.16 c 0.04,0.493334 -0.13333,0.74 -0.52,0.74 -0.24,0 -0.4,-0.106667 -0.48,-0.32 -0.0267,-0.06667 -0.0333,-0.14 -0.02,-0.22 v -0.1 l 0.28,-3.28 -2.52,1.86 c -0.16,0.12 -0.29334,0.180001 -0.4,0.180001 -0.24,0 -0.40667,-0.120001 -0.5,-0.360001 -0.0267,-0.06667 -0.04,-0.133333 -0.04,-0.2 0,-0.226666 0.14,-0.4 0.42,-0.519999 l 2.82,-1.360001 -2.82,-1.3400002 c -0.28,-0.1199989 -0.42,-0.293333 -0.42,-0.5199995 0,-0.253333 0.12667,-0.4266667 0.38,-0.5199999 0.0533,-0.026667 0.10667,-0.04 0.16,-0.04 0.08,0 0.21333,0.066667 0.4,0.1999998 l 2.52,1.8399997 -0.28,-3.1799994 V 6.2200003 c -0.0533,-0.2133332 0.04,-0.3666659 0.28,-0.4600001 l 0.02,-0.02 h 0.02 c 0.0667,-0.026667 0.13333,-0.04 0.2,-0.04 z"
         fill="#000000"
         id="path951" />
      <path
         d="m 137.76926,8.6000004 c -1.49334,0.9333334 -2.27333,2.0599996 -2.34,3.3799996 0,0.973333 0.42,1.746666 1.26001,2.32 0.56,0.386666 1.19333,0.58 1.89999,0.58 1.04,0 1.87334,-0.326667 2.5,-0.98 0.42667,-0.453333 0.64,-0.966667 0.64,-1.539999 0,-0.773334 -0.42666,-1.46 -1.28,-2.060001 -0.0267,-0.01333 -0.1,-0.06 -0.22,-0.14 z m 0.8,-6.4200001 c -0.95999,0 -1.71333,0.3000002 -2.25999,0.8999996 l -0.02,0.020001 c -0.29333,0.3466663 -0.44,0.7266664 -0.44,1.1399994 0,0.6400003 0.33334,1.1800003 1,1.6200008 l 2.48,1.5999989 c 1.31999,-0.7733335 1.98,-1.706666 1.98,-2.8000002 0,-0.8799991 -0.4,-1.5666656 -1.2,-2.0599994 -0.46668,-0.2799998 -0.98001,-0.4200001 -1.54001,-0.4200001 z m 0.02,-0.5 c 1.16001,0 2.10001,0.3666668 2.82001,1.1000004 0.51999,0.5333328 0.78,1.1599998 0.78,1.8799991 0,1.2400008 -0.80667,2.2733346 -2.42001,3.1000004 1.02667,0.6400004 1.65333,1.08 1.88,1.3199997 0.04,0.026667 0.0733,0.06 0.10001,0.1000004 0.65333,0.7200003 0.97999,1.5399997 0.97999,2.4599997 0,1.186667 -0.49333,2.153333 -1.47999,2.9 -0.77333,0.6 -1.66667,0.9 -2.68001,0.9 -1.26666,0 -2.31332,-0.393333 -3.14,-1.18 -0.66666,-0.64 -1,-1.399999 -1,-2.28 0,-1.493332 0.96001,-2.7199998 2.88001,-3.6799998 -0.82667,-0.5599995 -1.31334,-0.9199996 -1.46001,-1.0799999 -0.58666,-0.6533327 -0.87999,-1.3866663 -0.87999,-2.1999998 0,-1.0666666 0.44665,-1.9333334 1.34,-2.6000004 0.66667,-0.4933329 1.42666,-0.7399998 2.27999,-0.7399998 z"
         fill="#000000"
         id="path953" />
      <path
         d="m 148.54529,12.12 c -0.35466,0 -0.73267,0.177334 -1.13399,0.532 -0.40134,0.336 -0.64401,0.662667 -0.72801,0.98 l -0.68599,2.743999 c -0.028,0.112 -0.042,0.186667 -0.042,0.224001 0,0.214667 0.084,0.457333 0.252,0.727999 0.10268,0.177334 0.23334,0.312668 0.392,0.406 0.14,0.07467 0.29401,0.112002 0.462,0.112002 0.476,0 0.924,-0.298668 1.344,-0.896 0.12134,-0.168001 0.22867,-0.350001 0.322,-0.546002 0.252,-0.531999 0.46201,-1.250665 0.63001,-2.155999 0.056,-0.326667 0.084,-0.597333 0.084,-0.812 0,-0.737333 -0.224,-1.166667 -0.67201,-1.288 -0.0747,-0.01867 -0.14933,-0.028 -0.224,-0.028 z m -3.05199,-0.308 c 0.504,0 0.87267,0.205333 1.10599,0.615999 v 0.014 c 0.0747,0.121335 0.12601,0.261334 0.15401,0.420001 0.58799,-0.7 1.19932,-1.05 1.834,-1.05 0.66265,0 1.17132,0.298666 1.526,0.896 0.20533,0.42 0.31733,0.868 0.336,1.344 0,1.007999 -0.35466,1.941334 -1.064,2.799999 -0.64401,0.784001 -1.34868,1.213333 -2.114,1.288 -0.0653,0.0093 -0.13068,0.014 -0.19601,0.014 -0.588,0 -1.01732,-0.298666 -1.288,-0.896 -0.34533,1.232001 -0.56933,2.137335 -0.67199,2.716002 -0.009,0.04666 -0.014,0.07466 -0.014,0.084 0,0.102666 0.0607,0.167999 0.182,0.195999 h 0.014 c 0.11201,0.01867 0.28001,0.028 0.50401,0.028 0.20532,0 0.31732,0.05133 0.336,0.154001 0,0.186666 -0.084,0.279999 -0.252,0.279999 l -1.37201,-0.042 h -0.014 l -1.14801,0.042 h -0.028 c -0.12132,0 -0.18199,-0.056 -0.18199,-0.168 0.056,-0.167999 0.16333,-0.256668 0.32199,-0.266 0.34533,0 0.55534,-0.06067 0.63,-0.182 l 0.014,-0.014 c 0.0187,-0.03733 0.0373,-0.08867 0.056,-0.154001 0.009,-0.04667 0.028,-0.121332 0.056,-0.223999 l 1.56799,-6.23 c 0.0653,-0.28 0.098,-0.518 0.098,-0.714 0,-0.429333 -0.14467,-0.644 -0.43401,-0.644 -0.38266,0 -0.69532,0.443334 -0.938,1.33 -0.028,0.102667 -0.056,0.214667 -0.084,0.335999 -0.10266,0.205334 -0.18199,0.312668 -0.23799,0.322001 -0.112,0 -0.168,-0.04667 -0.168,-0.14 0,-0.149334 0.084,-0.461999 0.252,-0.938 0.0653,-0.168 0.12599,-0.308 0.18199,-0.42 0.224,-0.457333 0.504,-0.718666 0.84,-0.784 0.0653,-0.0093 0.13067,-0.014 0.19601,-0.014 z"
         fill="#000000"
         id="path955" />
      <path
         d="m 153.67107,8.4799995 h 0.196 6.86 c 0.224,0 0.34533,0.032667 0.36399,0.098001 h 0.014 c 0.0187,0.056 0.0187,0.149333 0,0.2799997 l -0.28,2.4219998 c -0.0653,0.214667 -0.13067,0.331334 -0.196,0.349999 -0.112,1e-6 -0.168,-0.056 -0.168,-0.167999 0,-0.04667 0.009,-0.130667 0.028,-0.252001 0.028,-0.251999 0.042,-0.503999 0.042,-0.755999 0,-0.6253329 -0.15866,-1.0406657 -0.476,-1.2459994 l -0.014,-0.014001 c -0.29868,-0.1866665 -0.81667,-0.2799997 -1.554,-0.2799997 h -1.84801 c -0.34534,0 -0.55066,0.051333 -0.616,0.1540002 h -0.014 v 0.014 c -0.028,0.037333 -0.0514,0.093333 -0.07,0.1680002 v 0.014 l -0.014,0.014 c -0.009,0.037334 -0.0234,0.098 -0.042,0.1820001 L 154.98706,13.016 h 1.274 c 0.68132,0 1.13865,-0.126001 1.37199,-0.378 l 0.014,-0.014 c 0.15866,-0.177333 0.29866,-0.494667 0.42,-0.952 0.0467,-0.177333 0.11667,-0.275333 0.20999,-0.294 0.10268,0 0.15868,0.05133 0.168,0.154 0,0.04667 -0.014,0.121334 -0.042,0.224001 L 157.63307,14.794 c -0.0933,0.186667 -0.16333,0.284667 -0.21,0.293999 -0.112,0 -0.168,-0.056 -0.168,-0.167999 0,-0.03733 0.014,-0.08867 0.042,-0.154 0.0653,-0.28 0.098,-0.508666 0.098,-0.686 0,-0.270666 -0.10267,-0.448 -0.308,-0.532 -0.17733,-0.06533 -0.46199,-0.098 -0.85399,-0.098 h -1.358 l -0.86802,3.486001 c -0.0373,0.139999 -0.056,0.247331 -0.056,0.321998 0,0.130667 0.0607,0.210001 0.182,0.238001 0.0653,0.01867 0.15401,0.03267 0.26601,0.042 0.23332,0.01867 0.476,0.028 0.728,0.028 0.23333,0 0.36399,0.0047 0.39199,0.014 l 0.07,0.098 c 0.009,0.01867 0.014,0.03733 0.014,0.056 0,0.177334 -0.098,0.266001 -0.294,0.266001 l -2.07199,-0.042 h -0.014 l -1.834,0.042 h -0.014 c -0.14,0 -0.21001,-0.056 -0.21001,-0.167999 0,-0.158667 0.0747,-0.247334 0.224,-0.266001 h 0.168 c 0.60667,0 0.97067,-0.06533 1.09201,-0.195999 0.056,-0.06533 0.112,-0.196001 0.168,-0.392 0,-0.0093 0.005,-0.03267 0.014,-0.07 l 1.84801,-7.4060011 c 0.0467,-0.1680003 0.07,-0.2799998 0.07,-0.3360005 0,-0.1586656 -0.21466,-0.2426662 -0.644,-0.2519998 h -0.014 -0.25199 c -0.24266,0 -0.37333,-0.051334 -0.392,-0.1540003 0,-0.1680002 0.0747,-0.2613325 0.224,-0.2799998 z"
         fill="#000000"
         id="path957" />
      <path
         d="m 161.47586,0 c 0.16,9.5367432e-7 0.51334,0.2733345 1.06,0.82000077 0.82667,0.82666673 1.51333,1.80666623 2.06001,2.93999943 0.87999,1.8133335 1.31999,3.8933335 1.31999,6.2399998 0,2.253333 -0.42,4.286667 -1.25999,6.1 -0.69335,1.48 -1.57334,2.666666 -2.64,3.56 -0.28,0.226665 -0.46001,0.34 -0.54001,0.34 -0.13333,0 -0.2,-0.06667 -0.2,-0.200001 0,-0.06667 0.0867,-0.18 0.26,-0.34 2.14667,-2.186666 3.22,-5.339999 3.22,-9.459999 0,-4.0666656 -1,-7.1466656 -3,-9.23999965 l -0.1,-0.1000005 c -0.25334,-0.23999977 -0.38001,-0.39333248 -0.38001,-0.45999915 0,-0.13333314 0.0667,-0.19999974632568 0.2,-0.2000007 z"
         fill="#000000"
         id="path959" />
      <path
         d="m 174.67813,9.6000004 h 10.89999 c 0.42667,0 0.64667,0.1333332 0.66001,0.3999996 0,0.266666 -0.22,0.400001 -0.66001,0.4 h -10.89999 c -0.42668,10e-7 -0.64667,-0.133334 -0.66,-0.4 0,-0.2666664 0.22,-0.3999996 0.66,-0.3999996 z"
         fill="#000000"
         id="path961" />
      <path
         d="m 198.7782,0 c 0.13333,9.5367432e-7 0.2,0.06666756 0.2,0.2000007 0,0.0666667 -0.0867,0.18000037 -0.26,0.3399992 -2.14667,2.1866675 -3.22,5.3400012 -3.22,9.4600001 0,4.106667 1.04666,7.226667 3.14,9.360001 0.22667,0.226665 0.34,0.373333 0.34,0.439998 0,0.133333 -0.0667,0.200001 -0.2,0.200001 -0.16001,0 -0.51334,-0.273335 -1.06,-0.82 -0.82666,-0.826667 -1.51334,-1.806667 -2.06,-2.94 -0.88,-1.813334 -1.32,-3.893334 -1.32,-6.24 0,-2.2533331 0.41999,-4.2866669 1.26001,-6.0999994 0.69332,-1.4799996 1.57333,-2.666667 2.63999,-3.56000051 C 198.5182,0.11333466 198.6982,9.5367432e-7 198.7782,0 Z"
         fill="#000000"
         id="path963" />
      <path
         d="m 204.87601,1.6800003 c 1.46666,0 2.60666,0.4933338 3.42,1.4799995 0.46665,0.5733338 0.73332,1.2533341 0.8,2.04 0.0133,0.1199999 0.02,0.2400007 0.02,0.3600006 0,0.9733334 -0.36667,1.8999996 -1.09999,2.7799998 C 207.62933,8.7933331 207.02933,9.3933334 206.216,10.14 l -1.22,1.08 -0.19999,0.18 -2.12002,2.06 h 3.60001 c 1.17334,0 1.80667,-0.05333 1.89999,-0.16 0.13335,-0.186666 0.28,-0.78 0.44001,-1.78 h 0.5 l -0.56,3.48 h -7.42 c 0,-0.333333 0.04,-0.546667 0.12,-0.64 l 0.1,-0.1 3.84,-4.2800005 c 1.40001,-1.5733327 2.10001,-3.0466651 2.10001,-4.4199991 0,-1.1866655 -0.36001,-2.0866661 -1.08001,-2.6999998 l -0.02,-0.02 h -0.02 c -0.42666,-0.3599997 -0.94665,-0.54 -1.55999,-0.54 -0.95999,0 -1.72667,0.4133329 -2.30001,1.2399998 -0.15998,0.2400007 -0.29332,0.5066671 -0.39999,0.8000002 0.04,-0.013332 0.12666,-0.019999 0.25999,-0.02 0.53335,1e-6 0.87334,0.2400008 1.02001,0.7199994 v 0.02 c 0.0267,0.093333 0.04,0.1933336 0.04,0.3000002 0,0.5333328 -0.25334,0.873333 -0.76001,1.0199995 -0.10666,0.026667 -0.2,0.04 -0.28,0.04 -0.49333,0 -0.81999,-0.206667 -0.98,-0.6199999 -0.0533,-0.1466665 -0.08,-0.3133335 -0.08,-0.5 0,-1.0266667 0.39333,-1.9066668 1.17999,-2.6400004 0.70668,-0.6533327 1.56002,-0.9799995 2.56002,-0.9799991 z"
         fill="#000000"
         id="path965" />
      <path
         d="m 219.58049,5.6999998 c 0.37334,0 0.53999,0.2400007 0.5,0.7200003 l -0.28,3.1999998 2.52001,-1.8599997 c 0.15998,-0.1199999 0.29333,-0.1799998 0.39999,-0.1799998 0.24,0 0.40666,0.1199999 0.5,0.3599997 0.0267,0.066666 0.04,0.1333336 0.04,0.2000002 0,0.2266665 -0.14,0.4000006 -0.42,0.5199995 l -2.84,1.3600002 2.89999,1.36 c 0.24001,0.12 0.36,0.286667 0.36,0.5 0,0.253333 -0.12666,0.426667 -0.37999,0.52 -0.0533,0.02667 -0.10667,0.04 -0.16,0.04 -0.10666,0 -0.35333,-0.146668 -0.74001,-0.440001 l -2.17999,-1.58 0.28,3.16 c 0.04,0.493334 -0.13333,0.74 -0.52,0.74 -0.23999,0 -0.4,-0.106667 -0.48,-0.32 -0.0267,-0.06667 -0.0333,-0.14 -0.02,-0.22 v -0.1 l 0.27999,-3.28 -2.51998,1.86 c -0.16001,0.12 -0.29334,0.180001 -0.40001,0.180001 -0.23999,0 -0.40667,-0.120001 -0.5,-0.360001 -0.0267,-0.06667 -0.04,-0.133333 -0.04,-0.2 0,-0.226666 0.14,-0.4 0.42,-0.519999 L 219.12048,10 216.30049,8.6599998 c -0.28,-0.1199989 -0.42,-0.293333 -0.42,-0.5199995 0,-0.253333 0.12667,-0.4266667 0.37999,-0.5199999 0.0533,-0.026667 0.10668,-0.04 0.16001,-0.04 0.08,0 0.21333,0.066667 0.40001,0.1999998 l 2.51998,1.8399997 -0.27999,-3.1799994 V 6.2200003 c -0.0533,-0.2133332 0.04,-0.3666659 0.27999,-0.4600001 l 0.02,-0.02 h 0.02 c 0.0667,-0.026667 0.13333,-0.04 0.2,-0.04 z"
         fill="#000000"
         id="path967" />
      <path
         d="m 233.94499,1.6800003 c 1.21334,0 2.19333,0.3600006 2.94,1.0799999 l 0.04,0.04 c 0.46667,0.4800005 0.70001,1.0266676 0.70001,1.6400003 0,1.1066666 -0.47334,2.0333329 -1.42001,2.7799998 -0.41333,0.3200001 -0.87332,0.5666666 -1.37999,0.7399997 1.33333,0.2666674 2.29333,0.9200001 2.87999,1.9600001 0.30667,0.5200009 0.46,1.0733339 0.46,1.6599999 0,1.133333 -0.46666,2.086667 -1.39999,2.86 -0.81334,0.666667 -1.76668,1 -2.86,1 -1.32001,0 -2.38001,-0.393333 -3.18001,-1.18 -0.57333,-0.56 -0.86,-1.213333 -0.86,-1.96 0,-0.626667 0.28,-1 0.84,-1.12 0.0933,-0.02667 0.18667,-0.04 0.28001,-0.04 0.50665,0 0.84667,0.213333 1.01999,0.64 0.0533,0.173333 0.0867,0.333334 0.10001,0.48 0,0.533333 -0.24001,0.88 -0.72001,1.04 -0.18666,0.06667 -0.38667,0.08667 -0.6,0.06 0.49333,0.826666 1.34666,1.32 2.56001,1.48 0.17333,0.02667 0.34,0.04 0.5,0.04 0.85333,0 1.48,-0.42 1.87999,-1.26 0.25334,-0.533333 0.38001,-1.213333 0.38001,-2.04 0,-1.7733327 -0.53334,-2.8399993 -1.60001,-3.1999999 -0.23999,-0.08 -0.5,-0.1199999 -0.78,-0.1199999 H 232.845 c -0.29333,0 -0.45334,-0.073334 -0.48001,-0.2200002 0,-0.1333332 0.10001,-0.2133332 0.3,-0.2399998 0.2,0 0.46001,-0.02 0.78,-0.06 C 234.125,7.7133336 234.65833,7.4533339 235.045,6.96 V 6.940001 l 0.02,-0.02 0.02,-0.019999 h 0.02 l 0.11999,-0.2000008 c 0.37334,-0.6266661 0.56,-1.3866663 0.56,-2.2799997 0,-1.2399988 -0.48,-1.9666653 -1.43999,-2.1799994 -0.16,-0.04 -0.32001,-0.06 -0.48001,-0.06 -0.93333,0 -1.69333,0.2666664 -2.28,0.8000002 -0.14667,0.1333342 -0.27333,0.2799997 -0.38,0.4399996 0.82667,0 1.24,0.3333339 1.24,1 0,0.4800005 -0.20666,0.8000002 -0.61999,0.96 -0.12001,0.040001 -0.25334,0.06 -0.40001,0.06 -0.51999,0 -0.84667,-0.2333336 -0.98,-0.7000007 v -0.019999 c -0.0267,-0.1066656 -0.04,-0.2133322 -0.04,-0.3199997 0,-0.8933325 0.44,-1.6066666 1.31999,-2.1400004 0.64,-0.3866663 1.38001,-0.5799999 2.22,-0.5799999 z"
         fill="#000000"
         id="path969" />
      <path
         d="m 243.98103,12.12 c -0.35466,0 -0.73266,0.177334 -1.13398,0.532 -0.40134,0.336 -0.64402,0.662667 -0.72802,0.98 l -0.68599,2.743999 c -0.028,0.112 -0.042,0.186667 -0.042,0.224001 0,0.214667 0.084,0.457333 0.252,0.727999 0.10267,0.177334 0.23333,0.312668 0.39199,0.406 0.14,0.07467 0.29401,0.112002 0.46201,0.112002 0.476,0 0.924,-0.298668 1.34399,-0.896 0.12134,-0.168001 0.22867,-0.350001 0.32201,-0.546002 0.252,-0.531999 0.46201,-1.250665 0.63001,-2.155999 0.056,-0.326667 0.084,-0.597333 0.084,-0.812 0,-0.737333 -0.22399,-1.166667 -0.67199,-1.288 -0.0747,-0.01867 -0.14934,-0.028 -0.22402,-0.028 z m -3.05198,-0.308 c 0.50399,0 0.87266,0.205333 1.10598,0.615999 v 0.014 c 0.0747,0.121335 0.12601,0.261334 0.15401,0.420001 0.588,-0.7 1.19933,-1.05 1.834,-1.05 0.66266,0 1.17133,0.298666 1.526,0.896 0.20534,0.42 0.31734,0.868 0.336,1.344 0,1.007999 -0.35466,1.941334 -1.064,2.799999 -0.64401,0.784001 -1.34867,1.213333 -2.11399,1.288 -0.0653,0.0093 -0.13068,0.014 -0.196,0.014 -0.58802,0 -1.01734,-0.298666 -1.28801,-0.896 -0.34534,1.232001 -0.56934,2.137335 -0.672,2.716002 -0.009,0.04666 -0.014,0.07466 -0.014,0.084 0,0.102666 0.0607,0.167999 0.18201,0.195999 h 0.014 c 0.11202,0.01867 0.28002,0.028 0.50402,0.028 0.20532,0 0.31732,0.05133 0.33599,0.154001 0,0.186666 -0.084,0.279999 -0.252,0.279999 l -1.372,-0.042 h -0.014 l -1.14801,0.042 h -0.028 c -0.12132,0 -0.18199,-0.056 -0.18199,-0.168 0.056,-0.167999 0.16333,-0.256668 0.32199,-0.266 0.34534,0 0.55535,-0.06067 0.63001,-0.182 l 0.014,-0.014 c 0.0187,-0.03733 0.0373,-0.08867 0.056,-0.154001 0.009,-0.04667 0.028,-0.121332 0.056,-0.223999 l 1.568,-6.23 c 0.0653,-0.28 0.098,-0.518 0.098,-0.714 0,-0.429333 -0.14466,-0.644 -0.434,-0.644 -0.38266,0 -0.69533,0.443334 -0.938,1.33 -0.028,0.102667 -0.056,0.214667 -0.084,0.335999 -0.10267,0.205334 -0.182,0.312668 -0.238,0.322001 -0.11199,0 -0.16799,-0.04667 -0.16799,-0.14 0,-0.149334 0.084,-0.461999 0.25199,-0.938 0.0653,-0.168 0.126,-0.308 0.182,-0.42 0.22399,-0.457333 0.50399,-0.718666 0.83999,-0.784 0.0653,-0.0093 0.13068,-0.014 0.19602,-0.014 z"
         fill="#000000"
         id="path971" />
      <path
         d="m 249.1068,8.4799995 h 0.196 6.86001 c 0.224,0 0.34534,0.032667 0.36398,0.098001 h 0.014 c 0.0187,0.056 0.0187,0.149333 0,0.2799997 L 256.2608,11.28 c -0.0653,0.214667 -0.13067,0.331334 -0.19601,0.349999 -0.11199,1e-6 -0.16799,-0.056 -0.16799,-0.167999 0,-0.04667 0.009,-0.130667 0.028,-0.252001 0.028,-0.251999 0.042,-0.503999 0.042,-0.755999 0,-0.6253333 -0.15866,-1.0406661 -0.476,-1.2459998 l -0.014,-0.014001 c -0.29868,-0.1866665 -0.81667,-0.2799997 -1.554,-0.2799997 h -1.84801 c -0.34534,0 -0.55066,0.051333 -0.616,0.1540002 h -0.014 v 0.014 c -0.028,0.037333 -0.0513,0.093333 -0.07,0.1680002 v 0.014 l -0.014,0.014 c -0.009,0.037334 -0.0233,0.098 -0.042,0.1820001 l -0.89599,3.556 h 1.274 c 0.68132,0 1.13865,-0.126001 1.37199,-0.378 l 0.014,-0.014 c 0.15866,-0.177333 0.29866,-0.494667 0.42,-0.952 0.0467,-0.177333 0.11667,-0.275333 0.20999,-0.294 0.10268,0 0.15868,0.05133 0.168,0.154 0,0.04667 -0.014,0.121334 -0.042,0.224001 L 253.0688,14.794 c -0.0933,0.186667 -0.16333,0.284667 -0.21,0.293999 -0.112,0 -0.168,-0.056 -0.168,-0.167999 0,-0.03733 0.014,-0.08867 0.042,-0.154 0.0653,-0.28 0.098,-0.508666 0.098,-0.686 0,-0.270666 -0.10267,-0.448 -0.308,-0.532 -0.17733,-0.06533 -0.46199,-0.098 -0.85399,-0.098 h -1.358 l -0.86802,3.486001 c -0.0373,0.139999 -0.056,0.247331 -0.056,0.321998 0,0.130667 0.0607,0.210001 0.182,0.238001 0.0653,0.01867 0.15401,0.03267 0.26601,0.042 0.23332,0.01867 0.476,0.028 0.728,0.028 0.23333,0 0.36399,0.0047 0.39199,0.014 l 0.07,0.098 c 0.009,0.01867 0.014,0.03733 0.014,0.056 0,0.177334 -0.098,0.266001 -0.294,0.266001 l -2.07199,-0.042 h -0.014 L 246.8248,18 h -0.014 c -0.14,0 -0.21001,-0.056 -0.21001,-0.167999 0,-0.158667 0.0747,-0.247334 0.224,-0.266001 h 0.168 c 0.60667,0 0.97067,-0.06533 1.09201,-0.195999 0.056,-0.06533 0.112,-0.196001 0.168,-0.392 0,-0.0093 0.005,-0.03267 0.014,-0.07 l 1.84801,-7.4060011 c 0.0467,-0.1680003 0.07,-0.2799998 0.07,-0.3360005 0,-0.1586656 -0.21466,-0.2426662 -0.644,-0.2519998 h -0.014 -0.25199 c -0.24266,0 -0.37333,-0.051334 -0.392,-0.1540003 0,-0.1680002 0.0747,-0.2613325 0.224,-0.2799998 z"
         fill="#000000"
         id="path973" />
      <path
         d="m 256.91159,0 c 0.16,9.5367432e-7 0.51334,0.2733345 1.06,0.82000077 0.82666,0.82666673 1.51333,1.80666623 2.06,2.93999943 0.88,1.8133335 1.32,3.8933335 1.32,6.2399998 0,2.253333 -0.42001,4.286667 -1.26001,6.1 -0.69333,1.48 -1.57333,2.666666 -2.63998,3.56 -0.28,0.226665 -0.45999,0.34 -0.54001,0.34 -0.13333,0 -0.19998,-0.06667 -0.19998,-0.200001 0,-0.06667 0.0866,-0.18 0.25998,-0.34 2.14667,-2.186666 3.22,-5.339999 3.22,-9.459999 0,-4.0666656 -1,-7.1466656 -3,-9.23999965 l -0.10001,-0.1000005 C 256.83826,0.42000008 256.71161,0.26666737 256.71161,0.2000007 256.71161,0.06666756 256.77826,9.5367432e-7 256.91159,0 Z"
         fill="#000000"
         id="path975" />
    </svg>
  </g>
  <g
     transform="matrix(0.4,0,0,0.4,23.981066,19.376464)"
     id="g1075">
    <svg
       height="100%"
       width="100%"
       version="1.1"
       id="svg1073">
      <path
         d="m 9.96,-0.43335915 c 1.453332,9.6e-7 2.559999,0.5933342 3.32,1.77999965 l 1.399999,-1.5399998 c 0.16,-0.15999897 0.26,-0.23999889 0.300001,-0.23999985 0.146665,9.6e-7 0.219999,0.0666676 0.22,0.19999977 L 13.94,4.8666401 c -0.06667,0.2400007 -0.133334,0.3666677 -0.2,0.3800001 l -0.02,0.020001 h -0.14 c -0.200001,0 -0.300001,-0.066667 -0.3,-0.1999998 l 0.06,-0.9800005 v -0.04 C 13.339999,2.3933082 12.82,1.2533088 11.78,0.62664082 L 11.76,0.60664132 C 11.293332,0.32664108 10.746666,0.18664074 10.12,0.18664072 8.7066669,0.18664074 7.3666663,0.71330738 6.0999999,1.7666407 5.7799997,2.0199747 5.4933329,2.2999744 5.2399998,2.6066408 3.9733331,4.0866404 3.1933331,5.9666405 2.8999999,8.2466402 c -0.053333,0.4133339 -0.08,0.7733336 -0.08,1.0800009 0,1.8666659 0.7066667,3.1266659 2.1200002,3.7799989 0.5466666,0.253334 1.146666,0.38 1.7999997,0.38 1.2533331,0 2.4799995,-0.486667 3.6800002,-1.46 0.933333,-0.786666 1.606666,-1.839999 2.02,-3.1599999 0.02667,-0.1333332 0.113332,-0.1999998 0.26,-0.1999998 0.16,0 0.24,0.066667 0.24,0.1999998 0,0.2400007 -0.153334,0.666667 -0.46,1.2800009 -0.413334,0.84 -0.993334,1.586666 -1.74,2.24 -1.3199999,1.146666 -2.7600005,1.719999 -4.3199999,1.719999 -1.706667,0 -3.0733338,-0.586666 -4.1000002,-1.759999 C 1.4399999,11.346641 1,10.10664 0.99999994,8.6266403 1,6.6399746 1.7266666,4.7799749 3.1799998,3.0466404 4.5266662,1.4333076 6.1199999,0.36664104 7.96,-0.15335944 c 0.6799994,-0.18666551 1.3466664,-0.27999875 2,-0.27999971 z"
         fill="#000000"
         id="path1053" />
      <path
         d="m 18.08844,7.342639 c 0.177334,0 0.280001,0.032667 0.308001,0.098 v 0.014 c 0.0093,0.028 0.014,0.1119995 0.014,0.2519999 v 7.8540001 c 0,0.28 0.056,0.457334 0.168,0.532001 0.158666,0.09333 0.536667,0.139999 1.134,0.139999 h 0.448 v 0.434 c -0.326665,-0.028 -1.082666,-0.042 -2.267999,-0.042 -1.185333,0 -1.941334,0.014 -2.268001,0.042 v -0.434 h 0.448001 c 0.718666,0 1.129334,-0.084 1.231999,-0.252 l 0.014,-0.014 c 0.03733,-0.07467 0.056,-0.210001 0.056,-0.406001 V 8.3086395 c -0.485334,0.2426663 -1.096668,0.3639994 -1.834,0.3639994 v -0.434 c 1.119999,0 1.969332,-0.298667 2.547999,-0.8959999 z"
         fill="#000000"
         id="path1055" />
      <path
         d="m 29.15004,10.20664 h 11.940002 c 0.426666,0 0.653332,0.133333 0.68,0.4 0,0.266667 -0.220001,0.4 -0.660003,0.4 H 29.130041 c -0.426668,0 -0.646667,-0.133333 -0.66,-0.4 -2e-6,-0.266667 0.226666,-0.4 0.679999,-0.4 z m -0.02,-3.8799994 h 11.979998 c 0.426666,0 0.646667,0.1333332 0.660003,0.3999996 0,0.2666669 -0.226669,0.4000001 -0.68,0.4000001 H 29.15004 c -0.426667,0 -0.653332,-0.1333332 -0.679999,-0.4000001 -2e-6,-0.2666664 0.22,-0.3999996 0.66,-0.3999996 z"
         fill="#000000"
         id="path1057" />
      <path
         d="m 58.42123,-0.43335915 c 1.453335,9.6e-7 2.560002,0.5933342 3.32,1.77999965 l 1.400002,-1.5399998 c 0.159999,-0.15999897 0.259998,-0.23999889 0.299999,-0.23999985 0.146667,9.6e-7 0.220001,0.0666676 0.220001,0.19999977 L 62.40123,4.8666401 c -0.06667,0.2400007 -0.133331,0.3666677 -0.199997,0.3800001 l -0.02,0.020001 h -0.14 c -0.199997,0 -0.299999,-0.066667 -0.299999,-0.1999998 l 0.06,-0.9800005 v -0.04 c 0,-1.6533327 -0.52,-2.7933321 -1.560001,-3.42000008 l -0.02,-0.0199995 c -0.466668,-0.27999974 -1.013333,-0.42000008 -1.64,-0.4200001 -1.41333,2e-8 -2.753334,0.52666666 -4.02,1.57999998 -0.32,0.253334 -0.606667,0.5333337 -0.859997,0.8400001 -1.26667,1.4799996 -2.046669,3.3599997 -2.34,5.6399994 -0.05333,0.4133339 -0.08,0.7733336 -0.08,1.0800009 0,1.8666664 0.706669,3.1266664 2.119999,3.7799994 0.546669,0.253334 1.146667,0.38 1.800003,0.38 1.25333,0 2.479996,-0.486667 3.68,-1.46 0.933331,-0.786666 1.606663,-1.839999 2.019997,-3.1600004 0.02667,-0.1333332 0.113335,-0.1999998 0.260002,-0.1999998 0.16,0 0.239998,0.066667 0.239998,0.1999998 0,0.2400007 -0.153332,0.666667 -0.459999,1.2800014 -0.413334,0.84 -0.993332,1.586666 -1.739998,2.24 -1.32,1.146666 -2.760002,1.719999 -4.32,1.719999 -1.706669,0 -3.073334,-0.586666 -4.100002,-1.759999 -0.880001,-1 -1.32,-2.240001 -1.32,-3.7200012 0,-1.9866657 0.726666,-3.8466654 2.180001,-5.5799999 1.346664,-1.6133328 2.939998,-2.67999936 4.779998,-3.19999984 0.680001,-0.18666551 1.346669,-0.27999875 2,-0.27999971 z"
         fill="#000000"
         id="path1059" />
      <path
         d="m 66.073669,7.342639 c 1.026673,0 1.824669,0.345334 2.394005,1.0360002 0.326668,0.4013329 0.513329,0.8773327 0.559998,1.4279995 0.0093,0.084001 0.014,0.1680012 0.014,0.2520013 0,0.681333 -0.256668,1.329999 -0.769997,1.945999 -0.270668,0.317333 -0.690666,0.737333 -1.260002,1.26 l -0.854004,0.756 -0.139999,0.126 -1.483994,1.442 h 2.519997 c 0.821335,0 1.264663,-0.03733 1.330002,-0.112 0.09333,-0.130666 0.195999,-0.546 0.307998,-1.246 h 0.349999 l -0.391999,2.436 h -5.194 c 0,-0.233333 0.028,-0.382667 0.084,-0.448 l 0.07,-0.07 2.688003,-2.996001 c 0.979996,-1.101333 1.469994,-2.132666 1.469994,-3.093999 0,-0.830667 -0.251999,-1.4606671 -0.755997,-1.8900008 l -0.014,-0.014 h -0.014 C 66.685005,7.9026394 66.321007,7.776639 65.89167,7.776639 c -0.671997,0 -1.208664,0.2893333 -1.61,0.868 -0.112,0.1680002 -0.20533,0.3546667 -0.279999,0.5600004 0.028,-0.00933 0.08867,-0.014 0.181999,-0.014 0.373337,0 0.611336,0.1680002 0.714005,0.5039997 v 0.014 c 0.01866,0.065333 0.028,0.1353341 0.028,0.2100001 0,0.3733338 -0.177337,0.6113328 -0.532005,0.7139998 -0.07466,0.01867 -0.139999,0.028 -0.195999,0.028 -0.345329,1e-6 -0.573998,-0.144666 -0.685997,-0.434 -0.03733,-0.102666 -0.056,-0.219333 -0.056,-0.3500006 0,-0.7186661 0.275334,-1.3346653 0.825997,-1.8479996 C 64.776338,7.5713062 65.373673,7.342639 66.07367,7.342639 Z"
         fill="#000000"
         id="path1061" />
      <path
         d="M 77.611275,10.20664 H 89.55127 c 0.426666,0 0.653335,0.133333 0.68,0.4 0,0.266667 -0.220001,0.4 -0.659996,0.4 H 77.59127 c -0.426666,0 -0.646667,-0.133333 -0.659996,-0.4 0,-0.266667 0.226662,-0.4 0.680001,-0.4 z M 77.59127,6.3266406 h 11.980004 c 0.426666,0 0.646667,0.1333332 0.659996,0.3999996 0,0.2666669 -0.226662,0.4000001 -0.68,0.4000001 H 77.611275 c -0.426667,0 -0.653336,-0.1333332 -0.680001,-0.4000001 0,-0.2666664 0.219994,-0.3999996 0.659996,-0.3999996 z"
         fill="#000000"
         id="path1063" />
      <path
         d="m 102.34246,0.34664059 c 0.25333,0 0.4,0.0466671 0.44,0.14000031 v 0.0199996 c 0.0133,0.0400009 0.02,0.16000075 0.02,0.36000055 V 12.08664 c 0,0.400001 0.08,0.653334 0.24001,0.760001 0.22666,0.133333 0.76666,0.199999 1.61999,0.199999 h 0.64 v 0.62 c -0.46667,-0.04 -1.54666,-0.06 -3.24,-0.06 -1.69333,0 -2.773329,0.02 -3.239996,0.06 v -0.62 h 0.639999 c 1.026667,0 1.613337,-0.119999 1.760007,-0.359999 l 0.02,-0.02 c 0.0533,-0.106666 0.08,-0.3 0.08,-0.58 V 1.7266407 C 100.62913,2.073308 99.755798,2.2466402 98.702461,2.2466402 V 1.6266404 c 1.599999,9e-7 2.813329,-0.4266654 3.639999,-1.27999981 z"
         fill="#000000"
         id="path1065" />
      <path
         d="m 111.90251,0.78664017 c -0.93333,9.5e-7 -1.61333,0.46666713 -2.04,1.40000053 -0.14667,0.3199997 -0.26,0.706667 -0.34,1.1599999 -0.10667,0.7200003 -0.16,1.9466667 -0.16,3.6799998 0,2.0133338 0.0733,3.4199996 0.21999,4.2199996 0.24001,1.28 0.82667,2.060001 1.76001,2.34 0.18666,0.05333 0.37333,0.08 0.56,0.08 0.84,0 1.48667,-0.406666 1.94,-1.22 0.18666,-0.36 0.32,-0.786667 0.4,-1.28 0.14667,-0.853333 0.22,-2.2333324 0.22,-4.1399996 0,-1.853333 -0.0667,-3.1533332 -0.20001,-3.9000001 -0.23999,-1.2666654 -0.85333,-2.0266657 -1.83999,-2.27999971 -0.17333,-0.04 -0.34667,-0.0599995 -0.52,-0.0600004 z m -0.22,-0.43999958 h 0.24 c 1.18667,0 2.15333,0.47333336 2.9,1.41999991 v 0.02 c 0.18666,0.2400007 0.35333,0.5066671 0.5,0.8000002 0.53333,1.1333332 0.8,2.6933336 0.8,4.6800003 0,1.9466667 -0.24667,3.453333 -0.74,4.519999 -0.78667,1.493334 -1.94667,2.266667 -3.48,2.32 -1.21333,0 -2.18667,-0.48 -2.92,-1.44 -0.14667,-0.173333 -0.27333,-0.366667 -0.38,-0.58 -0.6,-1.106666 -0.9,-2.7133325 -0.9,-4.819999 0,-1.9600001 0.24666,-3.4733334 0.73999,-4.54 0.66668,-1.4933329 1.74668,-2.28666592 3.24001,-2.38000041 z"
         fill="#000000"
         id="path1067" />
      <path
         d="m 121.87855,10.786639 c -0.35467,0 -0.73267,0.177334 -1.13401,0.532001 -0.40132,0.335999 -0.64399,0.662666 -0.72799,0.979999 l -0.68601,2.744 c -0.028,0.112 -0.042,0.186667 -0.042,0.224001 0,0.214666 0.084,0.457332 0.252,0.727999 0.10267,0.177333 0.23334,0.312667 0.39201,0.406 0.14,0.07467 0.294,0.112001 0.462,0.112001 0.47599,0 0.92399,-0.298668 1.344,-0.896001 0.12133,-0.168 0.22867,-0.349999 0.322,-0.545999 0.252,-0.532001 0.46199,-1.250667 0.62999,-2.156001 0.056,-0.326666 0.084,-0.597332 0.084,-0.812 0,-0.737333 -0.224,-1.166667 -0.67199,-1.288 -0.0747,-0.01867 -0.14933,-0.028 -0.224,-0.028 z m -3.052,-0.307999 c 0.50399,0 0.87266,0.205332 1.106,0.615999 v 0.014 c 0.0747,0.121334 0.126,0.261333 0.154,0.42 0.588,-0.7 1.19933,-1.049999 1.834,-1.049999 0.66266,0 1.17133,0.298666 1.526,0.896 0.20533,0.42 0.31733,0.868 0.336,1.343999 0,1.008 -0.35467,1.941334 -1.06401,2.800001 -0.64399,0.783999 -1.34866,1.213332 -2.11399,1.287999 -0.0653,0.0093 -0.13067,0.014 -0.196,0.014 -0.588,0 -1.01734,-0.298666 -1.28801,-0.895999 -0.34532,1.231999 -0.56932,2.137334 -0.67199,2.716 -0.009,0.04666 -0.014,0.07466 -0.014,0.084 0,0.102667 0.0607,0.167999 0.182,0.195999 h 0.014 c 0.112,0.01867 0.28,0.028 0.50399,0.028 0.20534,0 0.31734,0.05133 0.336,0.154001 0,0.186667 -0.084,0.279999 -0.252,0.279999 l -1.37199,-0.042 h -0.014 l -1.148,0.042 h -0.028 c -0.12134,0 -0.182,-0.056 -0.182,-0.167999 0.056,-0.168002 0.16333,-0.256667 0.322,-0.266001 0.34533,0 0.55533,-0.06067 0.62999,-0.181999 l 0.014,-0.014 c 0.0187,-0.03733 0.0373,-0.08867 0.056,-0.154001 0.009,-0.04667 0.028,-0.121333 0.056,-0.223999 l 1.568,-6.230001 c 0.0653,-0.28 0.098,-0.518 0.098,-0.714 0,-0.429332 -0.14466,-0.644 -0.43399,-0.644 -0.38267,0 -0.69534,0.443334 -0.938,1.33 -0.028,0.102667 -0.056,0.214667 -0.084,0.336 -0.10266,0.205333 -0.182,0.312667 -0.238,0.322 -0.112,0 -0.168,-0.04667 -0.168,-0.139999 0,-0.149334 0.084,-0.462 0.252,-0.938001 0.0653,-0.168 0.126,-0.308 0.182,-0.42 0.22401,-0.457333 0.50401,-0.718666 0.84001,-0.783999 0.0653,-0.0093 0.13067,-0.014 0.196,-0.014 z"
         fill="#000000"
         id="path1069" />
      <path
         d="m 128.8063,0.06664085 h 0.28 9.80001 c 0.32,9.6e-7 0.49333,0.0466671 0.52,0.1399995 h 0.02 c 0.0266,0.0800008 0.0266,0.21333398 0,0.40000053 L 139.0263,4.0666409 c -0.0933,0.3066663 -0.18666,0.4733333 -0.28,0.5 -0.16001,0 -0.24001,-0.08 -0.24001,-0.2400008 0,-0.066666 0.0133,-0.1866655 0.04,-0.3599996 0.04,-0.3599997 0.06,-0.7199993 0.06,-1.08 0,-0.8933324 -0.22667,-1.4866657 -0.67999,-1.7799996 l -0.02,-0.02 c -0.42667,-0.26666645 -1.16667,-0.39999966 -2.22,-0.39999966 h -2.64 c -0.49333,0 -0.78667,0.0733337 -0.88,0.22000021 h -0.02 v 0.0199994 c -0.04,0.0533334 -0.0733,0.13333335 -0.1,0.23999995 v 0.02 l -0.02,0.019999 c -0.0133,0.053333 -0.0333,0.1400004 -0.06,0.2600002 l -1.28,5.08 h 1.81999 c 0.97334,0 1.62668,-0.1799998 1.96001,-0.54 l 0.02,-0.02 c 0.22667,-0.2533327 0.42667,-0.7066656 0.59999,-1.3600002 0.0667,-0.2533331 0.16668,-0.3933334 0.30001,-0.4200001 0.14666,0 0.22667,0.073334 0.24,0.2200003 0,0.066668 -0.02,0.1733341 -0.06,0.3199997 l -1.1,4.3400002 c -0.13333,0.2666673 -0.23334,0.4066667 -0.3,0.42 -0.16001,0 -0.23999,-0.08 -0.23999,-0.2400007 0,-0.053332 0.02,-0.1266661 0.06,-0.2199993 0.0933,-0.3999996 0.14,-0.7266665 0.14,-0.9799995 0,-0.3866668 -0.14667,-0.6399999 -0.44,-0.7600003 -0.25334,-0.093333 -0.66,-0.1400003 -1.22,-0.1400003 h -1.94 l -1.23999,4.9800002 c -0.0533,0.2 -0.08,0.353332 -0.08,0.459999 0,0.186667 0.0867,0.3 0.26,0.34 0.0933,0.02667 0.22,0.04667 0.38,0.06 0.33333,0.02667 0.68,0.04 1.04,0.04 0.33333,0 0.52,0.0067 0.55999,0.02 l 0.10001,0.14 c 0.0133,0.02667 0.02,0.05333 0.02,0.08 0,0.253333 -0.13999,0.38 -0.42001,0.38 l -2.95999,-0.06 h -0.02 l -2.62,0.06 h -0.02 c -0.2,0 -0.3,-0.08 -0.3,-0.239999 0,-0.226667 0.10667,-0.353334 0.32,-0.380001 h 0.24 c 0.86667,0 1.38666,-0.09333 1.56,-0.279999 0.08,-0.09333 0.16,-0.280001 0.24,-0.560001 0,-0.01333 0.007,-0.04667 0.02,-0.1 l 2.64,-10.5799986 c 0.0667,-0.2399998 0.1,-0.4000006 0.1,-0.4800005 0,-0.22666649 -0.30667,-0.34666638 -0.91999,-0.3599997 h -0.02 -0.36 c -0.34666,0 -0.53334,-0.0733337 -0.56,-0.22000024 0,-0.23999885 0.10666,-0.37333205 0.31999,-0.39999965 z"
         fill="#000000"
         id="path1071" />
    </svg>
  </g>
</svg>
