<?xml version="1.0" encoding="UTF-8" standalone="no"?>
<svg
   xmlns:dc="http://purl.org/dc/elements/1.1/"
   xmlns:cc="http://creativecommons.org/ns#"
   xmlns:rdf="http://www.w3.org/1999/02/22-rdf-syntax-ns#"
   xmlns:svg="http://www.w3.org/2000/svg"
   xmlns="http://www.w3.org/2000/svg"
   xmlns:sodipodi="http://sodipodi.sourceforge.net/DTD/sodipodi-0.dtd"
   xmlns:inkscape="http://www.inkscape.org/namespaces/inkscape"
   inkscape:version="1.0 (4035a4fb49, 2020-05-01)"
   sodipodi:docname="ExampleIcon.svg"
   xml:space="preserve"
   style="enable-background:new 0 0 512 512;"
   viewBox="0 0 512 512"
   y="0px"
   x="0px"
   id="Capa_1"
   version="1.1"><metadata
   id="metadata52"><rdf:RDF><cc:Work
       rdf:about=""><dc:format>image/svg+xml</dc:format><dc:type
         rdf:resource="http://purl.org/dc/dcmitype/StillImage" /><dc:title></dc:title></cc:Work></rdf:RDF></metadata><defs
   id="defs50" /><sodipodi:namedview
   inkscape:current-layer="Capa_1"
   inkscape:window-maximized="1"
   inkscape:window-y="472"
   inkscape:window-x="-8"
   inkscape:cy="270.03896"
   inkscape:cx="180.79276"
   inkscape:zoom="1.0966797"
   showgrid="false"
   id="namedview48"
   inkscape:window-height="1377"
   inkscape:window-width="2560"
   inkscape:pageshadow="2"
   inkscape:pageopacity="0"
   guidetolerance="10"
   gridtolerance="10"
   objecttolerance="10"
   borderopacity="1"
   bordercolor="#666666"
   pagecolor="#ffffff" />
<linearGradient
   gradientTransform="matrix(1 0 0 -1 0 514)"
   y2="258"
   x2="485.4302"
   y1="258"
   x1="26.5698"
   gradientUnits="userSpaceOnUse"
   id="SVGID_1_">
	<stop
   id="stop2"
   style="stop-color:#fef200;stop-opacity:1"
   offset="0" />
	<stop
   id="stop4"
   style="stop-color:#fef200;stop-opacity:1"
   offset="0.021" />
	<stop
   id="stop6"
   style="stop-color:#fef200;stop-opacity:1"
   offset="0.293" />
	<stop
   id="stop8"
   style="stop-color:#fed700;stop-opacity:1"
   offset="0.554" />
	<stop
   id="stop10"
   style="stop-color:#fed700;stop-opacity:1"
   offset="0.796" />
	<stop
   id="stop12"
   style="stop-color:#fed700;stop-opacity:1"
   offset="1" />
</linearGradient>
<path
   id="path15"
   d="M193.459,492c0,11.046-8.954,20-20,20H106.57c-44.112,0-80-35.888-80-80V80  c0-44.112,35.888-80,80-80h245.889c44.112,0,80,35.888,80,80v123c0,11.046-8.954,20-20,20s-20-8.954-20-20V80  c0-22.056-17.944-40-40-40H106.57c-22.056,0-40,17.944-40,40v352c0,22.056,17.944,40,40,40h66.889  C184.505,472,193.459,480.954,193.459,492z M332.459,120h-206c-11.046,0-20,8.954-20,20s8.954,20,20,20h206c11.046,0,20-8.954,20-20  S343.505,120,332.459,120z M352.459,220c0-11.046-8.954-20-20-20h-206c-11.046,0-20,8.954-20,20s8.954,20,20,20h206  C343.505,240,352.459,231.046,352.459,220z M126.459,280c-11.046,0-20,8.954-20,20s8.954,20,20,20H251.57c11.046,0,20-8.954,20-20  s-8.954-20-20-20H126.459z M467.885,374.426L358.312,483.793c-2.44,2.436-5.468,4.199-8.79,5.119l-80.725,22.361  c-1.763,0.489-3.559,0.727-5.338,0.727c-5.317,0-10.501-2.123-14.317-6.034c-5.094-5.221-6.941-12.8-4.821-19.78l23.913-78.725  c0.958-3.152,2.678-6.018,5.01-8.345l109.803-109.56c23.379-23.379,61.443-23.378,84.837,0.016  C491.279,312.968,491.279,351.032,467.885,374.426z M407.428,378.254l-28.29-28.29l-74.089,73.925l-11.885,39.129l40.612-11.25  L407.428,378.254z M439.601,317.858c-7.798-7.798-20.486-7.798-28.284,0l-3.862,3.854l28.285,28.285l3.875-3.867  C447.399,338.344,447.399,325.656,439.601,317.858z"
   style="fill:url(#SVGID_1_);" />
<g
   id="g17">
</g>
<g
   id="g19">
</g>
<g
   id="g21">
</g>
<g
   id="g23">
</g>
<g
   id="g25">
</g>
<g
   id="g27">
</g>
<g
   id="g29">
</g>
<g
   id="g31">
</g>
<g
   id="g33">
</g>
<g
   id="g35">
</g>
<g
   id="g37">
</g>
<g
   id="g39">
</g>
<g
   id="g41">
</g>
<g
   id="g43">
</g>
<g
   id="g45">
</g>
</svg>
