<?xml version="1.0" encoding="UTF-8" standalone="no"?>
<svg
   xmlns:dc="http://purl.org/dc/elements/1.1/"
   xmlns:cc="http://creativecommons.org/ns#"
   xmlns:rdf="http://www.w3.org/1999/02/22-rdf-syntax-ns#"
   xmlns:svg="http://www.w3.org/2000/svg"
   xmlns="http://www.w3.org/2000/svg"
   xmlns:xlink="http://www.w3.org/1999/xlink"
   xmlns:sodipodi="http://sodipodi.sourceforge.net/DTD/sodipodi-0.dtd"
   xmlns:inkscape="http://www.inkscape.org/namespaces/inkscape"
   inkscape:version="1.0 (4035a4fb49, 2020-05-01)"
   sodipodi:docname="Gradient-Info.svg"
   xml:space="preserve"
   style="enable-background:new 0 0 512 512;"
   viewBox="0 0 512 512"
   y="0px"
   x="0px"
   id="Capa_1"
   version="1.1"><metadata
   id="metadata52"><rdf:RDF><cc:Work
       rdf:about=""><dc:format>image/svg+xml</dc:format><dc:type
         rdf:resource="http://purl.org/dc/dcmitype/StillImage" /><dc:title></dc:title></cc:Work></rdf:RDF></metadata><defs
   id="defs50"><linearGradient
     id="SVGID_1_"
     gradientUnits="userSpaceOnUse"
     x1="0"
     y1="258"
     x2="512"
     y2="258"
     gradientTransform="matrix(1 0 0 -1 0 514)">
	<stop
   offset="0"
   style="stop-color:#00F2FE"
   id="stop886" />
	<stop
   offset="0.021"
   style="stop-color:#03EFFE"
   id="stop888" />
	<stop
   offset="0.293"
   style="stop-color:#24D2FE"
   id="stop890" />
	<stop
   offset="0.554"
   style="stop-color:#3CBDFE"
   id="stop892" />
	<stop
   offset="0.796"
   style="stop-color:#4AB0FE"
   id="stop894" />
	<stop
   offset="1"
   style="stop-color:#4FACFE"
   id="stop896" />
</linearGradient><linearGradient
     gradientUnits="userSpaceOnUse"
     y2="256"
     x2="512"
     y1="256"
     x1="0"
     id="linearGradient901"
     xlink:href="#Kobee_Gradient"
     inkscape:collect="always" /></defs><sodipodi:namedview
   inkscape:current-layer="Capa_1"
   inkscape:window-maximized="1"
   inkscape:window-y="472"
   inkscape:window-x="-8"
   inkscape:cy="301.89956"
   inkscape:cx="71.935582"
   inkscape:zoom="1.0966797"
   showgrid="false"
   id="namedview48"
   inkscape:window-height="1377"
   inkscape:window-width="2560"
   inkscape:pageshadow="2"
   inkscape:pageopacity="0"
   guidetolerance="10"
   gridtolerance="10"
   objecttolerance="10"
   borderopacity="1"
   bordercolor="#666666"
   pagecolor="#ffffff" />
<linearGradient
   gradientTransform="matrix(1 0 0 -1 0 514)"
   y2="258"
   x2="512"
   y1="258"
   x1="0"
   gradientUnits="userSpaceOnUse"
   id="Kobee_Gradient">
	<stop
   id="stop2"
   style="stop-color:#fed700;stop-opacity:1"
   offset="0" />
	<stop
   id="stop4"
   style="stop-color:#fef900;stop-opacity:1"
   offset="0" />
	<stop
   id="stop6"
   style="stop-color:#fef200;stop-opacity:1"
   offset="0.30546662" />
	<stop
   id="stop8"
   style="stop-color:#fed700;stop-opacity:1"
   offset="0.73565632" />
	<stop
   id="stop10"
   style="stop-color:#fed700;stop-opacity:1"
   offset="0.90819949" />
	<stop
   id="stop12"
   style="stop-color:#fed700;stop-opacity:1"
   offset="1" />
</linearGradient>
<path
   id="path15"
   d="M256,512c-68.38,0-132.667-26.629-181.02-74.98C26.629,388.667,0,324.38,0,256  S26.629,123.333,74.98,74.98C123.333,26.629,187.62,0,256,0s132.667,26.629,181.02,74.98C485.371,123.333,512,187.62,512,256  c0,50.53-14.999,99.674-43.374,142.116c-6.139,9.183-18.559,11.648-27.742,5.51c-9.183-6.139-11.65-18.56-5.511-27.742  C459.335,340.044,472,298.589,472,256c0-119.103-96.897-216-216-216S40,136.897,40,256s96.897,216,216,216  c39.506,0,78.144-10.756,111.737-31.106c9.447-5.723,21.745-2.704,27.468,6.744c5.723,9.447,2.704,21.745-6.744,27.469  C348.618,499.242,302.813,512,256,512z M256,147c11.046,0,20-8.954,20-20s-8.954-20-20-20c-11.046,0-20,8.954-20,20  S244.954,147,256,147z M276,385V207c0-11.046-8.954-20-20-20s-20,8.954-20,20v178c0,11.046,8.954,20,20,20  C267.046,405,276,396.046,276,385z"
   style="fill:url(#linearGradient901);fill-opacity:1" />
<g
   id="g17">
</g>
<g
   id="g19">
</g>
<g
   id="g21">
</g>
<g
   id="g23">
</g>
<g
   id="g25">
</g>
<g
   id="g27">
</g>
<g
   id="g29">
</g>
<g
   id="g31">
</g>
<g
   id="g33">
</g>
<g
   id="g35">
</g>
<g
   id="g37">
</g>
<g
   id="g39">
</g>
<g
   id="g41">
</g>
<g
   id="g43">
</g>
<g
   id="g45">
</g>
</svg>
