<?xml version="1.0" encoding="UTF-8" standalone="no"?>
<svg
   xmlns:dc="http://purl.org/dc/elements/1.1/"
   xmlns:cc="http://creativecommons.org/ns#"
   xmlns:rdf="http://www.w3.org/1999/02/22-rdf-syntax-ns#"
   xmlns:svg="http://www.w3.org/2000/svg"
   xmlns="http://www.w3.org/2000/svg"
   xmlns:sodipodi="http://sodipodi.sourceforge.net/DTD/sodipodi-0.dtd"
   xmlns:inkscape="http://www.inkscape.org/namespaces/inkscape"
   inkscape:export-ydpi="96"
   inkscape:export-xdpi="96"
   inkscape:export-filename="C:\Users\Corey\Documents\KoBee\Website Assets\Calculator Assets\LED-Series-Resistor.png"
   width="660"
   height="360"
   viewBox="0 0 174.625 95.250003"
   version="1.1"
   id="svg8"
   inkscape:version="1.0 (4035a4fb49, 2020-05-01)"
   sodipodi:docname="All-Calculators.svg">
  <defs
     id="defs2">
    <marker
       inkscape:stockid="Arrow1Mend"
       orient="auto"
       refY="0.0"
       refX="0.0"
       id="marker3841"
       style="overflow:visible;"
       inkscape:isstock="true">
      <path
         id="path3839"
         d="M 0.0,0.0 L 5.0,-5.0 L -12.5,0.0 L 5.0,5.0 L 0.0,0.0 z "
         style="fill-rule:evenodd;stroke:#4e5153;stroke-width:1pt;stroke-opacity:1;fill:#4e5153;fill-opacity:1"
         transform="scale(0.4) rotate(180) translate(10,0)" />
    </marker>
    <marker
       inkscape:stockid="Arrow1Mend"
       orient="auto"
       refY="0.0"
       refX="0.0"
       id="marker3831"
       style="overflow:visible;"
       inkscape:isstock="true">
      <path
         id="path3829"
         d="M 0.0,0.0 L 5.0,-5.0 L -12.5,0.0 L 5.0,5.0 L 0.0,0.0 z "
         style="fill-rule:evenodd;stroke:#4e5153;stroke-width:1pt;stroke-opacity:1;fill:#4e5153;fill-opacity:1"
         transform="scale(0.4) rotate(180) translate(10,0)" />
    </marker>
    <marker
       inkscape:isstock="true"
       style="overflow:visible"
       id="TriangleOutL"
       refX="0.0"
       refY="0.0"
       orient="auto"
       inkscape:stockid="TriangleOutL">
      <path
         transform="scale(0.8)"
         style="fill-rule:evenodd;stroke:#000000;stroke-width:1pt;stroke-opacity:1;fill:#000000;fill-opacity:1"
         d="M 5.77,0.0 L -2.88,5.0 L -2.88,-5.0 L 5.77,0.0 z "
         id="path2502" />
    </marker>
    <marker
       inkscape:isstock="true"
       style="overflow:visible;"
       id="marker2926"
       refX="0.0"
       refY="0.0"
       orient="auto"
       inkscape:stockid="Arrow2Lend">
      <path
         transform="scale(1.1) rotate(180) translate(1,0)"
         d="M 8.7185878,4.0337352 L -2.2072895,0.016013256 L 8.7185884,-4.0017078 C 6.9730900,-1.6296469 6.9831476,1.6157441 8.7185878,4.0337352 z "
         style="fill-rule:evenodd;stroke-width:0.625;stroke-linejoin:round;stroke:#000000;stroke-opacity:1;fill:#000000;fill-opacity:1"
         id="path2924" />
    </marker>
    <marker
       inkscape:isstock="true"
       style="overflow:visible;"
       id="marker2868"
       refX="0.0"
       refY="0.0"
       orient="auto"
       inkscape:stockid="Arrow2Lend">
      <path
         transform="scale(1.1) rotate(180) translate(1,0)"
         d="M 8.7185878,4.0337352 L -2.2072895,0.016013256 L 8.7185884,-4.0017078 C 6.9730900,-1.6296469 6.9831476,1.6157441 8.7185878,4.0337352 z "
         style="fill-rule:evenodd;stroke-width:0.625;stroke-linejoin:round;stroke:#000000;stroke-opacity:1;fill:#000000;fill-opacity:1"
         id="path2866" />
    </marker>
    <marker
       inkscape:isstock="true"
       style="overflow:visible;"
       id="Arrow2Lend"
       refX="0.0"
       refY="0.0"
       orient="auto"
       inkscape:stockid="Arrow2Lend">
      <path
         transform="scale(1.1) rotate(180) translate(1,0)"
         d="M 8.7185878,4.0337352 L -2.2072895,0.016013256 L 8.7185884,-4.0017078 C 6.9730900,-1.6296469 6.9831476,1.6157441 8.7185878,4.0337352 z "
         style="fill-rule:evenodd;stroke-width:0.625;stroke-linejoin:round;stroke:#000000;stroke-opacity:1;fill:#000000;fill-opacity:1"
         id="path2381" />
    </marker>
    <marker
       inkscape:isstock="true"
       style="overflow:visible;"
       id="Arrow1Lend"
       refX="0.0"
       refY="0.0"
       orient="auto"
       inkscape:stockid="Arrow1Lend">
      <path
         transform="scale(0.8) rotate(180) translate(12.5,0)"
         style="fill-rule:evenodd;stroke:#000000;stroke-width:1pt;stroke-opacity:1;fill:#000000;fill-opacity:1"
         d="M 0.0,0.0 L 5.0,-5.0 L -12.5,0.0 L 5.0,5.0 L 0.0,0.0 z "
         id="path2363" />
    </marker>
    <marker
       inkscape:isstock="true"
       style="overflow:visible"
       id="Arrow1Lstart"
       refX="0.0"
       refY="0.0"
       orient="auto"
       inkscape:stockid="Arrow1Lstart">
      <path
         transform="scale(0.8) translate(12.5,0)"
         style="fill-rule:evenodd;stroke:#000000;stroke-width:1pt;stroke-opacity:1;fill:#000000;fill-opacity:1"
         d="M 0.0,0.0 L 5.0,-5.0 L -12.5,0.0 L 5.0,5.0 L 0.0,0.0 z "
         id="path2360" />
    </marker>
    <marker
       inkscape:isstock="true"
       style="overflow:visible"
       id="TriangleInL"
       refX="0.0"
       refY="0.0"
       orient="auto"
       inkscape:stockid="TriangleInL">
      <path
         transform="scale(-0.8)"
         style="fill-rule:evenodd;stroke:#000000;stroke-width:1pt;stroke-opacity:1;fill:#000000;fill-opacity:1"
         d="M 5.77,0.0 L -2.88,5.0 L -2.88,-5.0 L 5.77,0.0 z "
         id="path2493" />
    </marker>
    <marker
       inkscape:isstock="true"
       style="overflow:visible"
       id="Arrow2Mstart"
       refX="0.0"
       refY="0.0"
       orient="auto"
       inkscape:stockid="Arrow2Mstart">
      <path
         transform="scale(0.6) translate(0,0)"
         d="M 8.7185878,4.0337352 L -2.2072895,0.016013256 L 8.7185884,-4.0017078 C 6.9730900,-1.6296469 6.9831476,1.6157441 8.7185878,4.0337352 z "
         style="fill-rule:evenodd;stroke-width:0.625;stroke-linejoin:round;stroke:#000000;stroke-opacity:1;fill:#000000;fill-opacity:1"
         id="path2384" />
    </marker>
    <marker
       inkscape:stockid="TriangleInL"
       orient="auto"
       refY="0"
       refX="0"
       id="TriangleInL-7"
       style="overflow:visible"
       inkscape:isstock="true">
      <path
         id="path2493-4"
         d="M 5.77,0 -2.88,5 V -5 Z"
         style="fill:#000000;fill-opacity:1;fill-rule:evenodd;stroke:#000000;stroke-width:1pt;stroke-opacity:1"
         transform="scale(-0.8)" />
    </marker>
    <marker
       inkscape:stockid="Arrow1Lstart"
       orient="auto"
       refY="0"
       refX="0"
       id="Arrow1Lstart-8"
       style="overflow:visible"
       inkscape:isstock="true">
      <path
         id="path2360-1"
         d="M 0,0 5,-5 -12.5,0 5,5 Z"
         style="fill:#000000;fill-opacity:1;fill-rule:evenodd;stroke:#000000;stroke-width:1pt;stroke-opacity:1"
         transform="matrix(0.8,0,0,0.8,10,0)" />
    </marker>
    <marker
       inkscape:stockid="TriangleOutL"
       orient="auto"
       refY="0"
       refX="0"
       id="TriangleOutL-0"
       style="overflow:visible"
       inkscape:isstock="true">
      <path
         id="path2502-7"
         d="M 5.77,0 -2.88,5 V -5 Z"
         style="fill:#000000;fill-opacity:1;fill-rule:evenodd;stroke:#000000;stroke-width:1pt;stroke-opacity:1"
         transform="scale(0.8)" />
    </marker>
    <marker
       inkscape:isstock="true"
       style="overflow:visible"
       id="marker3831-4"
       refX="0"
       refY="0"
       orient="auto"
       inkscape:stockid="Arrow1Mend">
      <path
         transform="matrix(-0.4,0,0,-0.4,-4,0)"
         style="fill:#4e5153;fill-opacity:1;fill-rule:evenodd;stroke:#4e5153;stroke-width:1pt;stroke-opacity:1"
         d="M 0,0 5,-5 -12.5,0 5,5 Z"
         id="path3829-7" />
    </marker>
    <marker
       inkscape:isstock="true"
       style="overflow:visible"
       id="marker3841-2"
       refX="0"
       refY="0"
       orient="auto"
       inkscape:stockid="Arrow1Mend">
      <path
         transform="matrix(-0.4,0,0,-0.4,-4,0)"
         style="fill:#4e5153;fill-opacity:1;fill-rule:evenodd;stroke:#4e5153;stroke-width:1pt;stroke-opacity:1"
         d="M 0,0 5,-5 -12.5,0 5,5 Z"
         id="path3839-2" />
    </marker>
  </defs>
  <sodipodi:namedview
     showguides="true"
     id="base"
     pagecolor="#ffffff"
     bordercolor="#666666"
     borderopacity="1.0"
     inkscape:pageopacity="0.0"
     inkscape:pageshadow="2"
     inkscape:zoom="0.98994949"
     inkscape:cx="137.5306"
     inkscape:cy="182.14186"
     inkscape:document-units="mm"
     inkscape:current-layer="layer1"
     inkscape:document-rotation="0"
     showgrid="false"
     units="px"
     inkscape:window-width="2560"
     inkscape:window-height="1377"
     inkscape:window-x="-8"
     inkscape:window-y="477"
     inkscape:window-maximized="1" />
  <metadata
     id="metadata5">
    <rdf:RDF>
      <cc:Work
         rdf:about="">
        <dc:format>image/svg+xml</dc:format>
        <dc:type
           rdf:resource="http://purl.org/dc/dcmitype/StillImage" />
        <dc:title></dc:title>
      </cc:Work>
    </rdf:RDF>
  </metadata>
  <g
     inkscape:label="Layer 1"
     inkscape:groupmode="layer"
     id="layer1">
    <rect
       style="fill:none;fill-opacity:1;stroke:none;stroke-width:0.197656;stroke-linecap:round;stroke-linejoin:round;stroke-miterlimit:4;stroke-dasharray:none;stroke-opacity:1"
       id="rect846"
       width="172.98044"
       height="92.524414"
       x="-176.58397"
       y="0.84995687"
       ry="6.6088867" />
    <rect
       ry="6.6088867"
       y="1.7948973"
       x="0.93217969"
       height="92.524414"
       width="172.98044"
       id="rect846-0"
       style="fill:none;fill-opacity:1;stroke:none;stroke-width:0.197656;stroke-linecap:round;stroke-linejoin:round;stroke-miterlimit:4;stroke-dasharray:none;stroke-opacity:1" />
    <rect
       style="fill:none;fill-opacity:1;stroke:none;stroke-width:0.197656;stroke-linecap:round;stroke-linejoin:round;stroke-miterlimit:4;stroke-dasharray:none;stroke-opacity:1"
       id="rect846-0-6"
       width="172.98045"
       height="92.524414"
       x="-176.58398"
       y="93.374374"
       ry="6.6088867" />
    <rect
       style="fill:none;fill-opacity:1;stroke:none;stroke-width:0.197656;stroke-linecap:round;stroke-linejoin:round;stroke-miterlimit:4;stroke-dasharray:none;stroke-opacity:1"
       id="rect846-0-4"
       width="172.98045"
       height="92.524414"
       x="93.674706"
       y="-106.44927"
       ry="6.6088867" />
    <rect
       style="fill:none;fill-opacity:1;stroke:none;stroke-width:0.197656;stroke-linecap:round;stroke-linejoin:round;stroke-miterlimit:4;stroke-dasharray:none;stroke-opacity:1"
       id="rect846-0-0"
       width="172.98045"
       height="92.524414"
       x="-176.58398"
       y="-91.674454"
       ry="6.6088867" />
    <g
       id="g9995"
       transform="translate(-1.9665635,-2.7291404)">
      <text
         xml:space="preserve"
         style="font-style:normal;font-weight:normal;font-size:12.7856px;line-height:1.25;font-family:sans-serif;fill:#4e5153;fill-opacity:1;stroke:none;stroke-width:0.31964"
         x="89.435173"
         y="87.934532"
         id="text844-8"><tspan
           sodipodi:role="line"
           x="89.435173"
           y="87.934532"
           style="font-style:normal;font-variant:normal;font-weight:300;font-stretch:normal;font-family:Comfortaa;-inkscape-font-specification:'Comfortaa Light';text-align:center;text-anchor:middle;fill:#4e5153;fill-opacity:1;stroke-width:0.31964"
           id="tspan856-0">View All Calculators</tspan></text>
      <path
         style="fill:#fed700;fill-opacity:1;stroke-width:2.1;stroke-miterlimit:4;stroke-dasharray:none"
         d="M 104.74101,67.530912 H 70.103787 c -3.182004,0 -5.77287,-2.590862 -5.77287,-5.77287 V 17.88423 c 0,-3.182008 2.590866,-5.77287 5.77287,-5.77287 h 34.637223 c 3.182,0 5.77287,2.590862 5.77287,5.77287 v 43.873812 c 0,3.182008 -2.59087,5.77287 -5.77287,5.77287 z M 70.103787,14.420507 c -1.909663,0 -3.463719,1.554056 -3.463719,3.463723 v 43.873812 c 0,1.909667 1.554056,3.463723 3.463719,3.463723 h 34.637223 c 1.90966,0 3.46372,-1.554056 3.46372,-3.463723 V 17.88423 c 0,-1.909667 -1.55406,-3.463723 -3.46372,-3.463723 z"
         id="path2" />
      <path
         style="fill:#fed700;fill-opacity:1;stroke-width:0;stroke-miterlimit:4;stroke-dasharray:none"
         d="M 100.12271,30.584543 H 74.722084 c -1.909663,0 -3.463724,-1.554056 -3.463724,-3.463724 v -4.618292 c 0,-1.909668 1.554061,-3.463724 3.463724,-3.463724 h 25.400626 c 1.90967,0 3.46373,1.554056 3.46373,3.463724 v 4.618292 c 0,1.909668 -1.55406,3.463724 -3.46373,3.463724 z M 74.722084,21.347949 c -0.637327,0 -1.154573,0.517251 -1.154573,1.154578 v 4.618292 c 0,0.637326 0.517246,1.154577 1.154573,1.154577 h 25.400626 c 0.63733,0 1.15458,-0.517251 1.15458,-1.154577 v -4.618292 c 0,-0.637327 -0.51725,-1.154578 -1.15458,-1.154578 z"
         id="path4" />
      <path
         style="fill:#fed700;fill-opacity:1;stroke-width:0;stroke-miterlimit:4;stroke-dasharray:none"
         d="m 78.185807,44.439433 c -0.637326,0 -1.154573,-0.517251 -1.154573,-1.154574 v -6.927447 c 0,-0.637322 0.517247,-1.154573 1.154573,-1.154573 0.637322,0 1.154573,0.517251 1.154573,1.154573 v 6.927447 c 0,0.637323 -0.517251,1.154574 -1.154573,1.154574 z"
         id="path6" />
      <path
         style="fill:#fed700;fill-opacity:1;stroke-width:0;stroke-miterlimit:4;stroke-dasharray:none"
         d="m 81.649527,40.975709 h -6.927443 c -0.637327,0 -1.154573,-0.517247 -1.154573,-1.154573 0,-0.637326 0.517246,-1.154573 1.154573,-1.154573 h 6.927443 c 0.637326,0 1.154577,0.517247 1.154577,1.154573 0,0.637326 -0.517251,1.154573 -1.154577,1.154573 z"
         id="path8" />
      <path
         style="fill:#fed700;fill-opacity:1;stroke-width:0;stroke-miterlimit:4;stroke-dasharray:none"
         d="m 100.12271,40.975709 h -6.92744 c -0.637326,0 -1.154577,-0.517247 -1.154577,-1.154573 0,-0.637326 0.517251,-1.154573 1.154577,-1.154573 h 6.92744 c 0.63733,0 1.15458,0.517247 1.15458,1.154573 0,0.637326 -0.51725,1.154573 -1.15458,1.154573 z"
         id="path10" />
      <path
         style="fill:#fed700;fill-opacity:1;stroke-width:0;stroke-miterlimit:4;stroke-dasharray:none"
         d="m 100.12271,51.366876 h -6.92744 c -0.637326,0 -1.154577,-0.517251 -1.154577,-1.154574 0,-0.637326 0.517251,-1.154573 1.154577,-1.154573 h 6.92744 c 0.63733,0 1.15458,0.517247 1.15458,1.154573 0,0.637323 -0.51725,1.154574 -1.15458,1.154574 z"
         id="path12" />
      <path
         style="fill:#fed700;fill-opacity:1;stroke-width:0;stroke-miterlimit:4;stroke-dasharray:none"
         d="m 100.12271,58.294323 h -6.92744 c -0.637326,0 -1.154577,-0.517251 -1.154577,-1.154578 0,-0.637322 0.517251,-1.154573 1.154577,-1.154573 h 6.92744 c 0.63733,0 1.15458,0.517251 1.15458,1.154573 0,0.637327 -0.51725,1.154578 -1.15458,1.154578 z"
         id="path14" />
      <path
         style="fill:#fed700;fill-opacity:1;stroke-width:0;stroke-miterlimit:4;stroke-dasharray:none"
         d="m 74.722084,58.294323 c -0.295572,0 -0.591143,-0.11315 -0.817437,-0.337137 -0.450286,-0.450285 -0.450286,-1.182285 0,-1.632566 l 6.927443,-6.927447 c 0.450285,-0.450286 1.182285,-0.450286 1.632566,0 0.450286,0.450285 0.450286,1.182281 0,1.632566 l -6.927443,6.927447 c -0.223986,0.223987 -0.519558,0.337137 -0.815129,0.337137 z"
         id="path16" />
      <path
         style="fill:#fed700;fill-opacity:1;stroke-width:0;stroke-miterlimit:4;stroke-dasharray:none"
         d="m 81.649527,58.294323 c -0.295568,0 -0.591139,-0.11315 -0.817437,-0.337137 l -6.927443,-6.927447 c -0.450286,-0.450285 -0.450286,-1.182281 0,-1.632566 0.450281,-0.450286 1.182281,-0.450286 1.632566,0 l 6.927443,6.927447 c 0.450286,0.450281 0.450286,1.182281 0,1.632566 -0.223987,0.223987 -0.519558,0.337137 -0.815129,0.337137 z"
         id="path18" />
    </g>
  </g>
</svg>
